<svg xmlns="http://www.w3.org/2000/svg" xmlns:xlink="http://www.w3.org/1999/xlink" version="1.1" viewBox="-582 156 858 1212" width="858px" height="1212px"><defs><style>@font-face{
    font-family:"DIN Next";
    font-weight: 400;
    src:url("https://whimsical.com/fonts/139e8e25-0eea-4cb4-a5d4-79048803e73d.eot?#iefix");
    src:url("https://whimsical.com/fonts/139e8e25-0eea-4cb4-a5d4-79048803e73d.eot?#iefix") format("eot"),url("https://whimsical.com/fonts/094b15e3-94bd-435b-a595-d40edfde661a.woff2") format("woff2"),url("https://whimsical.com/fonts/7e5fbe11-4858-4bd1-9ec6-a1d9f9d227aa.woff") format("woff"),url("https://whimsical.com/fonts/0f11eff9-9f05-46f5-9703-027c510065d7.ttf") format("truetype"),url("https://whimsical.com/fonts/48b61978-3f30-4274-823c-5cdcd1876918.svg#48b61978-3f30-4274-823c-5cdcd1876918") format("svg");
}
@font-face{
    font-family:"DIN Next";
    font-weight: 400;
    font-style: italic;
    src:url("https://whimsical.com/fonts/df24d5e8-5087-42fd-99b1-b16042d666c8.eot?#iefix");
    src:url("https://whimsical.com/fonts/df24d5e8-5087-42fd-99b1-b16042d666c8.eot?#iefix") format("eot"),url("https://whimsical.com/fonts/46251881-ffe9-4bfb-99c7-d6ce3bebaf3e.woff2") format("woff2"),url("https://whimsical.com/fonts/790ebbf2-62c5-4a32-946f-99d405f9243e.woff") format("woff"),url("https://whimsical.com/fonts/d28199e6-0f4a-42df-97f4-606701c6f75a.ttf") format("truetype"),url("https://whimsical.com/fonts/37a462c0-d86e-492c-b9ab-35e6bd417f6c.svg#37a462c0-d86e-492c-b9ab-35e6bd417f6c") format("svg");
}
@font-face{
    font-weight: 500;
    font-family:"DIN Next";
    src:url("https://whimsical.com/fonts/c5b058fc-55ce-4e06-a175-5c7d9a7e90f4.eot?#iefix");
    src:url("https://whimsical.com/fonts/c5b058fc-55ce-4e06-a175-5c7d9a7e90f4.eot?#iefix") format("eot"),url("https://whimsical.com/fonts/7b29ae40-30ff-4f99-a2b9-cde88669fa2f.woff2") format("woff2"),url("https://whimsical.com/fonts/bf73077c-e354-4562-a085-f4703eb1d653.woff") format("woff"),url("https://whimsical.com/fonts/0ffa6947-5317-4d07-b525-14d08a028821.ttf") format("truetype"),url("https://whimsical.com/fonts/9e423e45-5450-4991-a157-dbe6cf61eb4e.svg#9e423e45-5450-4991-a157-dbe6cf61eb4e") format("svg");
}
@font-face{
    font-family:"DIN Next";
    font-weight: 500;
    font-style: italic;
    src:url("https://whimsical.com/fonts/9897c008-fd65-48a4-afc7-36de2fea97b9.eot?#iefix");
    src:url("https://whimsical.com/fonts/9897c008-fd65-48a4-afc7-36de2fea97b9.eot?#iefix") format("eot"),url("https://whimsical.com/fonts/c7717981-647d-4b76-8817-33062e42d11f.woff2") format("woff2"),url("https://whimsical.com/fonts/b852cd4c-1255-40b1-a2be-73a9105b0155.woff") format("woff"),url("https://whimsical.com/fonts/821b00ad-e741-4e2d-af1a-85594367c8a2.ttf") format("truetype"),url("https://whimsical.com/fonts/d3e3b689-a6b0-45f2-b279-f5e194f87409.svg#d3e3b689-a6b0-45f2-b279-f5e194f87409") format("svg");
}
@font-face{
    font-weight: 700;
    font-family:"DIN Next";
    src:url("https://whimsical.com/fonts/81cd3b08-fd39-4ae3-8d05-9d24709eba84.eot?#iefix");
    src:url("https://whimsical.com/fonts/81cd3b08-fd39-4ae3-8d05-9d24709eba84.eot?#iefix") format("eot"),url("https://whimsical.com/fonts/31704504-4671-47a6-a61e-397f07410d91.woff2") format("woff2"),url("https://whimsical.com/fonts/b8a280da-481f-44a0-8d9c-1bc64bd7227c.woff") format("woff"),url("https://whimsical.com/fonts/276d122a-0fab-447b-9fc0-5d7fb0eafce2.ttf") format("truetype"),url("https://whimsical.com/fonts/8fb8273a-8213-4928-808b-b5bfaf3fd7e9.svg#8fb8273a-8213-4928-808b-b5bfaf3fd7e9") format("svg");
}
@font-face{
    font-family:"DIN Next";
    font-weight: 700;
    font-style: italic;
    src:url("https://whimsical.com/fonts/00cc6df3-ed32-4004-8dd8-1c576600a408.eot?#iefix");
    src:url("https://whimsical.com/fonts/00cc6df3-ed32-4004-8dd8-1c576600a408.eot?#iefix") format("eot"),url("https://whimsical.com/fonts/4132c4c8-680c-4d6d-9251-a2da38503bbd.woff2") format("woff2"),url("https://whimsical.com/fonts/366401fe-6df4-47be-8f55-8a411cff0dd2.woff") format("woff"),url("https://whimsical.com/fonts/dbe4f7ba-fc16-44a6-a577-571620e9edaf.ttf") format("truetype"),url("https://whimsical.com/fonts/f874edca-ee87-4ccf-8b1d-921fbc3c1c36.svg#f874edca-ee87-4ccf-8b1d-921fbc3c1c36") format("svg");
}

@font-face {
    font-family: 'PFDINMonoPro';
    src:url('https://whimsical.com/fonts/PFDINMonoPro-Regular.woff') format('woff');
    font-weight: 400;
}
@font-face {
    font-family: 'PFDINMonoPro';
    src:url('https://whimsical.com/fonts/PFDINMonoPro-Italic.woff') format('woff');
    font-style: italic;
    font-weight: 400;
}
@font-face {
    font-family: 'PFDINMonoPro';
    src:url('https://whimsical.com/fonts/PFDINMonoPro-Bold.woff') format('woff');
    font-weight: 700;
}
@font-face {
    font-family: 'PFDINMonoPro';
    src:url('https://whimsical.com/fonts/PFDINMonoPro-BoldItalic.woff') format('woff');
    font-style: italic;
    font-weight: 700;
}
* {-webkit-font-smoothing: auto; -moz-osx-font-smoothing: auto;}@media print { svg { width: 100%; height: 100%; } }</style><g><filter id="white-fill-shadow"><feDropShadow dx="0" dy="2" stdDeviation="6" flood-opacity="0.03" flood-color="#000000"></feDropShadow></filter><filter id="light-gray-fill-shadow"><feDropShadow dx="0" dy="2" stdDeviation="6" flood-opacity="0.09" flood-color="#000000"></feDropShadow></filter><filter id="yellow-fill-shadow"><feDropShadow dx="0" dy="2" stdDeviation="6" flood-opacity="0.12" flood-color="#000000"></feDropShadow></filter><filter id="fill-shadow"><feDropShadow dx="0" dy="2" stdDeviation="6" flood-opacity="0.16" flood-color="#000000"></feDropShadow></filter><filter id="frame-shadow"><feDropShadow dx="0" dy="3" stdDeviation="8" flood-opacity="0.06" flood-color="#000000"></feDropShadow></filter><filter id="button-shadow"><feDropShadow dx="0" dy="2" stdDeviation="6" flood-opacity="0.03" flood-color="#000000"></feDropShadow></filter><filter id="button-hover-shadow"><feDropShadow dx="0" dy="2" stdDeviation="6" flood-opacity="0.08" flood-color="#000000"></feDropShadow></filter><filter id="badge-shadow"><feDropShadow dx="0" dy="2" stdDeviation="6" flood-opacity="0.08" flood-color="#000000"></feDropShadow></filter></g></defs><g><g><rect x="-408" y="156" width="192" height="96" rx="48" ry="48" fill="#d5e7f7"></rect><rect y="156" rx="48" stroke="#2C88D9" fill="none" stroke-linejoin="round" width="192" stroke-linecap="round" stroke-width="2" x="-408" ry="48" height="96"></rect><g class="content"><g><g><g><g><g></g><text fill="#293845"><tspan x="-381.728515625" y="210.5" font-family="DIN Next, sans-serif" font-size="18" font-style="normal" font-weight="normal">Create Attestation</tspan></text></g></g></g></g></g></g></g><g><g><rect x="-408" y="312" width="192" height="96" rx="3" ry="3" fill="#d5e7f7"></rect><rect y="312" rx="3" stroke="#2C88D9" fill="none" stroke-linejoin="round" width="192" stroke-linecap="round" stroke-width="2" x="-408" ry="3" height="96"></rect><g class="content"><g><g><g><g><g></g><text fill="#293845"><tspan x="-391.35791015625" y="354.5" font-family="DIN Next, sans-serif" font-size="18" font-style="normal" font-weight="normal">based on registered </tspan></text></g></g><g><g><g></g><text fill="#293845"><tspan x="-342.43701171875" y="378.5" font-family="DIN Next, sans-serif" font-size="18" font-style="normal" font-weight="normal">schema</tspan></text></g></g></g></g></g></g></g><g><g><line stroke="#788896" fill="none" stroke-linejoin="round" y1="260" stroke-linecap="round" stroke-width="4" x1="-312" y2="299.99999999999994" x2="-312"></line><polygon points="-306.45905,296.9079 -312,304 -317.54095,296.9079" fill="#788896" stroke="#788896" stroke-width="2" stroke-linecap="round" stroke-linejoin="round"></polygon></g></g><g><g><path d="M-430.94663,446.80899c-0.58176,-1.55136 0.28978,-2.80899 1.94663,-2.80899h198c1.65685,0 3.47161,1.25763 4.05337,2.80899l33.89326,90.38202c0.58176,1.55136 -0.28978,2.80899 -1.94663,2.80899h-198c-1.65685,0 -3.47161,-1.25763 -4.05337,-2.80899z" fill="#e3cff3"></path><path d="M-430.94663,446.80899c-0.58176,-1.55136 0.28978,-2.80899 1.94663,-2.80899h198c1.65685,0 3.47161,1.25763 4.05337,2.80899l33.89326,90.38202c0.58176,1.55136 -0.28978,2.80899 -1.94663,2.80899h-198c-1.65685,0 -3.47161,-1.25763 -4.05337,-2.80899z" fill="none" stroke="#730FC3" stroke-linecap="round" stroke-linejoin="round" stroke-width="2"></path><g class="content"><g><g><g><g><g></g><text fill="#293845"><tspan x="-370.56884765625" y="498.5" font-family="DIN Next, sans-serif" font-size="18" font-style="normal" font-weight="normal">SchemaRecord</tspan></text></g></g></g></g></g></g></g><g><path d="M108,396c0,13.25482 -42.98074,24 -96,24c-53.01926,0 -96,-10.74518 -96,-24c0,-10.83203 0,-52.04437 0,-66.74846c9.15504,11.84195 48.65715,20.74846 96,20.74846c47.34285,0 86.84496,-8.90651 96,-20.74846c0,17.32368 0,54.90474 0,66.74846zM-84,324c0,-13.25482 42.98074,-24 96,-24c53.01926,0 96,10.74518 96,24c0,13.25482 -42.98074,24 -96,24c-53.01926,0 -96,-10.74518 -96,-24z" fill="#FFFFFF" filter="url(#fill-shadow)"></path><g><path d="M108,396c0,13.25482 -42.98074,24 -96,24c-53.01926,0 -96,-10.74518 -96,-24c0,-10.83203 0,-52.04437 0,-66.74846c9.15504,11.84195 48.65715,20.74846 96,20.74846c47.34285,0 86.84496,-8.90651 96,-20.74846c0,17.32368 0,54.90474 0,66.74846zM-84,324c0,-13.25482 42.98074,-24 96,-24c53.01926,0 96,10.74518 96,24c0,13.25482 -42.98074,24 -96,24c-53.01926,0 -96,-10.74518 -96,-24z" fill="#730FC3"></path><g class="content"><g><g><g><g><g></g><text fill="#FFFFFF"><tspan x="-33.015625" y="384.5" font-family="DIN Next, sans-serif" font-size="18" font-style="normal" font-weight="normal">Schema.sol</tspan></text></g></g></g></g></g></g></g><g><g><line stroke="#788896" fill="none" stroke-linejoin="round" y1="360" stroke-linecap="round" stroke-width="4" x1="-207.99999999999991" y2="360" x2="-96.00000000000016"></line><polygon points="-99.0921,354.45905 -92,360 -99.0921,365.54095" fill="#788896" stroke="#788896" stroke-width="2" stroke-linecap="round" stroke-linejoin="round"></polygon></g></g><g><g><path d="M12,428v49c0,8.28426 -6.71574,15 -15,15h-189" fill="none" stroke="#788896" stroke-linecap="round" stroke-linejoin="round" stroke-width="4"></path><polygon points="-188.9079,497.54095 -196,492 -188.9079,486.45905" fill="#788896" stroke="#788896" stroke-width="2" stroke-linecap="round" stroke-linejoin="round"></polygon></g></g><g><g><rect x="-389" y="732" width="192" height="96" rx="3" ry="3" fill="#d5e7f7"></rect><rect y="732" rx="3" stroke="#2C88D9" fill="none" stroke-linejoin="round" width="192" stroke-linecap="round" stroke-width="2" x="-389" ry="3" height="96"></rect><g class="content"><g><g><g><g><g></g><text fill="#293845"><tspan x="-361.17138671875" y="786.5" font-family="DIN Next, sans-serif" font-size="18" font-style="normal" font-weight="normal">create attestation</tspan></text></g></g></g></g></g></g></g><g><path d="M-197,984c0,13.25482 -42.98074,24 -96,24c-53.01926,0 -96,-10.74518 -96,-24c0,-10.83203 0,-52.04437 0,-66.74846c9.15504,11.84195 48.65715,20.74846 96,20.74846c47.34285,0 86.84496,-8.90651 96,-20.74846c0,17.32368 0,54.90474 0,66.74846zM-389,917.25154c0,0.73743 0,0.96061 0,0zM-389,912c0,-13.25482 42.98074,-24 96,-24c53.01926,0 96,10.74518 96,24c0,13.25482 -42.98074,24 -96,24c-53.01926,0 -96,-10.74518 -96,-24z" fill="#FFFFFF" filter="url(#fill-shadow)"></path><g><path d="M-197,984c0,13.25482 -42.98074,24 -96,24c-53.01926,0 -96,-10.74518 -96,-24c0,-10.83203 0,-52.04437 0,-66.74846c9.15504,11.84195 48.65715,20.74846 96,20.74846c47.34285,0 86.84496,-8.90651 96,-20.74846c0,17.32368 0,54.90474 0,66.74846zM-389,917.25154c0,0.73743 0,0.96061 0,0zM-389,912c0,-13.25482 42.98074,-24 96,-24c53.01926,0 96,10.74518 96,24c0,13.25482 -42.98074,24 -96,24c-53.01926,0 -96,-10.74518 -96,-24z" fill="#2C88D9"></path><g class="content"><g><g><g><g><g></g><text fill="#FFFFFF"><tspan x="-348.88623046875" y="972.5" font-family="DIN Next, sans-serif" font-size="18" font-style="normal" font-weight="normal">Attestation.sol</tspan></text></g></g></g></g></g></g></g><g><g><line stroke="#788896" fill="none" stroke-linejoin="round" y1="836" stroke-linecap="round" stroke-width="4" x1="-293" y2="876" x2="-293"></line><polygon points="-287.45905,872.9079 -293,880 -298.54095,872.9079" fill="#788896" stroke="#788896" stroke-width="2" stroke-linecap="round" stroke-linejoin="round"></polygon></g></g><g><g><path d="M-411.94663,1070.80899c-0.58176,-1.55136 0.28978,-2.80899 1.94663,-2.80899h198c1.65685,0 3.47161,1.25763 4.05337,2.80899l33.89326,90.38202c0.58176,1.55136 -0.28978,2.80899 -1.94663,2.80899h-198c-1.65685,0 -3.47161,-1.25763 -4.05337,-2.80899z" fill="#d5e7f7"></path><path d="M-411.94663,1070.80899c-0.58176,-1.55136 0.28978,-2.80899 1.94663,-2.80899h198c1.65685,0 3.47161,1.25763 4.05337,2.80899l33.89326,90.38202c0.58176,1.55136 -0.28978,2.80899 -1.94663,2.80899h-198c-1.65685,0 -3.47161,-1.25763 -4.05337,-2.80899z" fill="none" stroke="#2C88D9" stroke-linecap="round" stroke-linejoin="round" stroke-width="2"></path><g class="content"><g><g><g><g><g></g><text fill="#293845"><tspan x="-362.439453125" y="1122.5" font-family="DIN Next, sans-serif" font-size="18" font-style="normal" font-weight="normal">AttestationRecord</tspan></text></g></g></g></g></g></g></g><g><g><line stroke="#788896" fill="none" stroke-linejoin="round" y1="1015.9999999999998" stroke-linecap="round" stroke-width="4" x1="-293" y2="1055.9999999999998" x2="-293"></line><polygon points="-287.45905,1052.9079 -293,1060 -298.54095,1052.9079" fill="#788896" stroke="#788896" stroke-width="2" stroke-linecap="round" stroke-linejoin="round"></polygon></g></g><g><g><rect x="-377" y="1164" width="204" height="204" rx="3" ry="3" fill="#d5e7f7"></rect><rect y="1164" rx="3" stroke="#2C88D9" fill="none" stroke-linejoin="round" width="204" stroke-linecap="round" stroke-width="2" x="-377" ry="3" height="204"></rect><g class="content"><g><g><g><g><g></g><text fill="#293845"><tspan x="-365" y="1191.5" font-family="DIN Next, sans-serif" font-size="15" font-style="normal" font-weight="normal">reference schema</tspan></text></g></g></g></g><g><g><g><g><g></g><text fill="#293845"><tspan x="-365" y="1211.5" font-family="DIN Next, sans-serif" font-size="15" font-style="normal" font-weight="normal">creation time</tspan></text></g></g></g></g><g><g><g><g><g></g><text fill="#293845"><tspan x="-365" y="1231.5" font-family="DIN Next, sans-serif" font-size="15" font-style="normal" font-weight="normal">expiration time</tspan></text></g></g></g></g><g><g><g><g><g></g><text fill="#293845"><tspan x="-365" y="1251.5" font-family="DIN Next, sans-serif" font-size="15" font-style="normal" font-weight="normal">revocation time</tspan></text></g></g></g></g><g><g><g><g><g></g><text fill="#293845"><tspan x="-365" y="1271.5" font-family="DIN Next, sans-serif" font-size="15" font-style="normal" font-weight="normal">reference attestation</tspan></text></g></g></g></g><g><g><g><g><g></g><text fill="#293845"><tspan x="-365" y="1291.5" font-family="DIN Next, sans-serif" font-size="15" font-style="normal" font-weight="normal">recipient of attestation</tspan></text></g></g></g></g><g><g><g><g><g></g><text fill="#293845"><tspan x="-365" y="1311.5" font-family="DIN Next, sans-serif" font-size="15" font-style="normal" font-weight="normal">attester</tspan></text></g></g></g></g><g><g><g><g><g></g><text fill="#293845"><tspan x="-365" y="1331.5" font-family="DIN Next, sans-serif" font-size="15" font-style="normal" font-weight="normal">revocable</tspan></text></g></g></g></g><g><g><g><g><g></g><text fill="#293845"><tspan x="-365" y="1351.5" font-family="DIN Next, sans-serif" font-size="15" font-style="normal" font-weight="normal">data (based on schema)</tspan></text></g></g></g></g></g></g></g><g><g><rect x="-395" y="540" width="203.99999999999997" height="108" rx="3" ry="3" fill="#e3cff3"></rect><rect y="540" rx="3" stroke="#730FC3" fill="none" stroke-linejoin="round" width="203.99999999999997" stroke-linecap="round" stroke-width="2" x="-395" ry="3" height="108"></rect><g class="content"><g><g><g><g><g></g><text fill="#293845"><tspan x="-383" y="569.5" font-family="DIN Next, sans-serif" font-size="15" font-style="normal" font-weight="normal">ABI encoded data field</tspan></text></g></g></g></g><g><g><g><g><g></g><text fill="#293845"><tspan x="-383" y="589.5" font-family="DIN Next, sans-serif" font-size="15" font-style="normal" font-weight="normal">bool revocable</tspan></text></g></g></g></g><g><g><g><g><g></g><text fill="#293845"><tspan x="-383" y="609.5" font-family="DIN Next, sans-serif" font-size="15" font-style="normal" font-weight="normal">schema uid</tspan></text></g></g></g></g><g><g><g><g><g></g><text fill="#293845"><tspan x="-383" y="629.5" font-family="DIN Next, sans-serif" font-size="15" font-style="normal" font-weight="normal">resolver addr</tspan></text></g></g></g></g></g></g></g><g><g><line stroke="#788896" fill="none" stroke-linejoin="round" y1="655.9999999999998" stroke-linecap="round" stroke-width="4" x1="-293" y2="720.0000000000002" x2="-293"></line><polygon points="-287.45905,716.9079 -293,724 -298.54095,716.9079" fill="#788896" stroke="#788896" stroke-width="2" stroke-linecap="round" stroke-linejoin="round"></polygon></g></g><g><g><path d="M-396,1188h-129c-8.28426,0 -15,-6.71574 -15,-15v-306M-540,839v-332c0,-8.28426 6.71574,-15 15,-15h99" fill="none" stroke="#788896" stroke-linecap="round" stroke-linejoin="round" stroke-width="4" stroke-dasharray="12, 10" stroke-dashoffset="0"></path><polygon points="-429.0921,486.45905 -422,492 -429.0921,497.54095" fill="#788896" stroke="#788896" stroke-width="2" stroke-linecap="round" stroke-linejoin="round"></polygon><text y="841" font-style="normal" font-size="18" font-weight="normal" fill="#293845" width="75" xml:space="preserve" x="-577.5" font-family="DIN Next, sans-serif" height="24"><tspan x="-540" y="859" text-anchor="middle" style="white-space:pre;">reference</tspan></text></g></g><g><g><path d="M37.05337,1070.80899c-0.58176,-1.55136 0.28978,-2.80899 1.94663,-2.80899h198c1.65685,0 3.47161,1.25763 4.05337,2.80899l33.89326,90.38202c0.58176,1.55136 -0.28978,2.80899 -1.94663,2.80899h-198c-1.65685,0 -3.47161,-1.25763 -4.05337,-2.80899z" fill="#d5e7f7"></path><path d="M37.05337,1070.80899c-0.58176,-1.55136 0.28978,-2.80899 1.94663,-2.80899h198c1.65685,0 3.47161,1.25763 4.05337,2.80899l33.89326,90.38202c0.58176,1.55136 -0.28978,2.80899 -1.94663,2.80899h-198c-1.65685,0 -3.47161,-1.25763 -4.05337,-2.80899z" fill="none" stroke="#2C88D9" stroke-linecap="round" stroke-linejoin="round" stroke-width="2"></path><g class="content"><g><g><g><g><g></g><text fill="#293845"><tspan x="110.111328125" y="1110.5" font-family="DIN Next, sans-serif" font-size="18" font-style="normal" font-weight="normal">Preexisting </tspan></text></g></g><g><g><g></g><text fill="#293845"><tspan x="113.783203125" y="1134.5" font-family="DIN Next, sans-serif" font-size="18" font-style="normal" font-weight="normal">Attestation</tspan></text></g></g></g></g></g></g></g><g><g><path d="M-156,1272h12c6.62741,0 12,-5.37259 12,-12v-127M-84.5,1116h126.5" fill="none" stroke="#788896" stroke-linecap="round" stroke-linejoin="round" stroke-width="4" stroke-dasharray="12, 10" stroke-dashoffset="0"></path><polygon points="38.9079,1110.45905 46,1116 38.9079,1121.54095" fill="#788896" stroke="#788896" stroke-width="2" stroke-linecap="round" stroke-linejoin="round"></polygon><text y="1107" font-style="normal" font-size="18" font-weight="normal" fill="#293845" width="75" xml:space="preserve" x="-163.5" font-family="DIN Next, sans-serif" height="24"><tspan x="-126" y="1125" text-anchor="middle" style="white-space:pre;">reference</tspan></text></g></g></svg>