<?xml version="1.0" standalone="no"?>
<!DOCTYPE svg PUBLIC "-//W3C//DTD SVG 20010904//EN"
 "http://www.w3.org/TR/2001/REC-SVG-20010904/DTD/svg10.dtd">
<svg version="1.0" xmlns="http://www.w3.org/2000/svg"
 width="1024.000000pt" height="1024.000000pt" viewBox="0 0 1024.000000 1024.000000"
 preserveAspectRatio="xMidYMid meet">
<metadata>
Created by potrace 1.14, written by Peter Selinger 2001-2017
</metadata>
<g transform="translate(0.000000,1024.000000) scale(0.100000,-0.100000)"
fill="#000000" stroke="none">
<path d="M3467 8084 c-3 -4 -91 -6 -195 -5 -208 2 -242 -2 -242 -29 0 -19 49
-111 98 -182 56 -83 57 -84 22 -128 -43 -54 -108 -94 -203 -126 -128 -42 -182
-69 -231 -114 -71 -66 -86 -97 -93 -193 -5 -76 -3 -92 27 -181 17 -53 30 -99
28 -101 -4 -4 -247 43 -258 50 -13 8 -20 -23 -20 -82 0 -40 -5 -62 -20 -80
-11 -14 -20 -33 -20 -41 0 -8 -3 -12 -7 -9 -3 4 -12 2 -20 -5 -11 -9 -12 -7
-7 7 5 13 4 16 -4 11 -7 -4 -12 -2 -12 4 0 6 -4 8 -10 5 -5 -3 -10 -1 -10 6 0
8 -4 8 -15 -1 -13 -11 -14 -10 -9 4 4 12 2 15 -9 10 -8 -3 -18 0 -22 5 -3 6
-11 8 -17 5 -6 -4 -8 -2 -4 4 3 6 2 13 -4 17 -6 4 -7 11 -4 17 4 6 2 8 -4 5
-10 -7 -22 46 -19 90 1 25 36 35 155 49 34 3 62 11 62 16 0 5 -8 21 -17 35
-15 23 -18 46 -15 146 3 106 1 122 -18 153 -28 45 -83 86 -104 78 -30 -12 -85
-100 -126 -204 -46 -117 -52 -163 -65 -480 l-8 -174 186 -181 c172 -166 227
-230 227 -262 0 -18 -57 -16 -113 3 -48 16 -77 14 -77 -6 0 -6 4 -9 9 -6 5 4
7 -3 4 -14 -3 -12 0 -20 7 -20 7 0 10 -6 7 -14 -4 -10 8 -20 36 -31 57 -23
103 -59 134 -107 22 -33 25 -43 15 -59 -10 -15 -9 -19 2 -19 20 0 31 -76 17
-112 -6 -16 -13 -28 -16 -28 -4 0 -3 5 1 12 4 7 3 8 -5 4 -6 -4 -9 -12 -6 -17
4 -5 1 -9 -4 -9 -6 0 -11 -8 -11 -17 0 -15 2 -16 10 -3 5 8 10 10 10 4 0 -6
-8 -18 -17 -25 -10 -8 -14 -9 -10 -2 4 6 3 14 -2 17 -5 4 -8 -5 -6 -20 2 -19
-1 -24 -13 -19 -12 4 -13 3 -2 -10 9 -11 9 -15 1 -15 -7 0 -9 -4 -6 -10 3 -6
-1 -7 -9 -4 -9 3 -13 11 -10 18 3 6 -2 2 -11 -9 -9 -11 -20 -19 -25 -18 -4 1
-5 -7 -2 -19 4 -16 2 -19 -8 -13 -10 6 -12 4 -7 -8 4 -12 2 -14 -10 -10 -12 5
-14 2 -9 -8 4 -8 1 -5 -8 5 -8 10 -13 23 -9 29 3 6 1 7 -5 3 -8 -4 -8 -15 -2
-31 6 -15 6 -27 -1 -30 -5 -4 -8 -1 -7 7 2 7 -4 13 -12 13 -9 0 -16 -11 -18
-25 -2 -19 -1 -22 7 -10 8 12 10 10 8 -8 0 -12 -2 -22 -4 -22 -11 0 -72 64
-67 71 3 5 10 7 15 3 5 -3 6 -10 3 -16 -5 -7 -2 -8 6 -3 8 5 11 4 6 -3 -3 -6
-2 -13 4 -17 18 -11 11 21 -9 39 -13 12 -21 14 -26 6 -5 -8 -16 -3 -36 16 -15
15 -26 32 -22 37 3 6 1 7 -5 3 -6 -3 -19 4 -29 16 -31 38 -92 92 -97 87 -3 -3
50 -62 119 -132 98 -102 121 -130 111 -140 -7 -7 -11 -25 -9 -40 4 -27 -12
-38 -20 -14 -2 6 -2 2 0 -10 2 -17 -1 -21 -12 -17 -8 3 -13 10 -10 14 3 4 -2
10 -10 14 -21 8 -19 27 3 20 10 -4 13 -2 7 3 -5 4 -13 12 -16 16 -3 4 -11 -4
-17 -19 -7 -14 -8 -23 -3 -19 6 3 15 -3 21 -14 6 -12 6 -22 0 -26 -5 -3 -8
-21 -6 -40 1 -19 -1 -35 -6 -35 -4 0 -8 -5 -8 -11 0 -5 5 -7 12 -3 6 4 8 3 5
-3 -4 -6 -1 -13 6 -16 9 -3 13 3 13 16 -1 15 8 23 32 29 17 5 32 13 32 18 0 6
13 21 29 36 43 38 29 76 -19 53 -11 -5 -15 0 -17 19 -1 25 0 26 13 7 8 -10 14
-14 14 -9 0 6 -5 15 -12 22 -7 7 -8 12 -3 12 11 -1 44 -27 63 -52 14 -18 25
-3 -157 -205 -90 -99 -126 -133 -81 -75 11 15 31 42 43 59 12 18 30 36 40 39
18 6 18 7 -1 27 -26 30 -39 52 -23 43 8 -6 11 2 8 28 -3 20 0 39 4 42 5 3 9
10 9 17 0 6 -7 1 -16 -11 -8 -12 -20 -19 -26 -16 -5 4 -3 -5 7 -19 11 -17 13
-27 5 -32 -6 -3 -9 -1 -8 5 2 7 -8 14 -22 15 -14 2 -19 1 -12 -1 6 -3 9 -11 6
-16 -4 -6 -2 -8 3 -5 13 8 37 -19 29 -32 -4 -5 -2 -12 4 -16 5 -3 10 -10 10
-16 0 -5 -8 -1 -18 9 -12 11 -14 20 -8 24 8 5 7 8 -1 8 -19 0 -27 -21 -12 -32
14 -10 9 -9 -38 8 -15 6 -15 4 2 -11 19 -17 19 -17 -5 -3 -14 9 -30 25 -36 37
-6 12 -14 24 -18 28 -3 3 -3 -200 0 -453 5 -409 8 -462 23 -483 21 -30 42 -34
88 -15 29 13 44 13 87 4 116 -27 237 -105 270 -174 14 -29 16 -54 10 -143 -4
-62 -12 -117 -20 -130 -7 -12 -41 -42 -74 -68 -41 -32 -63 -56 -66 -75 -3 -15
-25 -47 -48 -71 -23 -24 -55 -62 -71 -84 -16 -22 -59 -71 -96 -110 l-66 -70
-7 -150 c-6 -123 -5 -157 7 -185 8 -19 19 -60 25 -90 14 -79 108 -272 194
-399 73 -108 135 -170 206 -204 l37 -17 -32 5 c-27 4 -33 1 -33 -13 0 -9 5
-24 10 -32 8 -12 10 -11 10 8 0 12 3 22 8 22 20 -1 31 -19 35 -63 7 -66 17
-72 17 -9 l0 50 25 -21 c18 -16 20 -23 10 -25 -8 -2 -15 -12 -15 -23 0 -15 7
-19 38 -20 20 0 44 -3 53 -7 14 -6 15 -9 3 -20 -8 -7 -14 -8 -14 -2 0 5 -4 10
-10 10 -5 0 -10 -15 -10 -34 0 -32 2 -35 29 -34 23 1 31 7 39 32 l10 31 1 -32
c1 -24 6 -33 24 -36 l22 -4 -22 -2 c-17 -1 -23 -7 -23 -26 0 -22 4 -25 39 -25
22 0 46 -3 55 -6 13 -5 15 4 13 65 -2 78 2 74 -81 71 -46 -2 -48 0 -43 22 3
13 16 73 30 135 29 130 57 213 71 213 6 0 34 -11 61 -24 28 -13 78 -27 110
-32 41 -5 51 -9 33 -12 -28 -3 -36 -16 -18 -27 6 -4 8 -11 5 -16 -4 -5 -1 -9
4 -9 14 0 14 13 1 26 -7 7 -6 11 4 11 8 0 13 -4 10 -9 -3 -4 -1 -8 5 -8 5 0
12 6 14 13 4 8 6 7 7 -3 0 -10 6 -6 16 10 14 23 14 23 9 3 -8 -30 3 -30 15 0
7 18 9 18 9 4 1 -10 6 -15 11 -12 6 4 8 11 5 16 -4 5 -1 9 4 9 6 0 11 -4 11
-9 0 -13 -26 -32 -33 -24 -4 3 -7 2 -7 -4 0 -5 3 -13 8 -17 4 -4 8 -12 8 -17
3 -22 5 -23 14 -9 7 10 9 -1 6 -36 -3 -62 -36 -123 -102 -188 -41 -42 -50 -46
-89 -44 -25 0 -42 4 -40 8 2 4 -7 5 -20 2 -22 -4 -25 -9 -25 -51 0 -26 3 -50
6 -54 3 -3 8 -47 10 -98 2 -54 8 -95 15 -100 8 -5 8 -8 0 -13 -6 -4 -11 -18
-11 -32 0 -24 1 -25 83 -24 80 1 124 -4 135 -15 3 -3 -11 -5 -31 -5 -21 0 -37
-4 -37 -10 0 -6 32 -10 75 -10 43 0 75 -4 75 -10 0 -6 -32 -10 -75 -10 -73 0
-75 -1 -75 -25 0 -25 1 -25 78 -25 l78 0 2 -72 c3 -83 12 -107 12 -30 0 49 2
52 25 52 18 0 29 -8 36 -27 8 -20 13 -24 16 -13 8 24 34 40 65 40 24 0 28 -4
29 -27 l1 -28 8 30 c6 24 8 26 9 8 1 -28 21 -31 21 -3 0 25 26 26 52 3 17 -15
18 -15 18 4 0 30 43 23 51 -8 7 -23 7 -23 8 -1 1 29 19 29 25 0 3 -13 7 -32 9
-43 3 -11 5 -1 6 23 1 38 3 42 26 42 18 0 23 -4 19 -15 -4 -8 -1 -15 5 -15 6
0 11 8 11 18 0 12 8 18 25 20 20 1 25 -3 26 -21 1 -17 2 -18 6 -4 2 9 9 17 14
17 5 0 9 5 9 10 0 6 -60 10 -160 10 -136 0 -160 2 -160 15 0 13 19 15 123 14
67 0 132 2 145 6 14 5 22 3 22 -4 0 -8 5 -9 19 -1 14 7 21 6 24 -3 4 -9 8 -8
16 3 12 18 27 19 60 8 27 -10 81 7 82 26 0 6 4 2 8 -9 7 -17 16 -20 54 -17 41
4 45 6 51 35 3 16 8 28 11 25 5 -5 12 -69 14 -127 1 -29 3 -32 17 -20 11 9 15
26 12 56 -2 34 0 43 12 43 12 0 15 -8 12 -35 -2 -19 -1 -43 3 -52 7 -16 9 -15
15 7 5 16 8 19 9 8 1 -21 17 -24 24 -5 4 9 6 9 6 0 2 -21 21 -14 21 7 0 12 -7
20 -17 21 -11 0 -13 3 -5 6 6 2 12 16 12 29 0 15 6 24 15 24 11 0 15 -12 15
-50 0 -47 2 -50 25 -50 21 0 25 5 26 33 1 29 2 30 8 7 6 -21 13 -25 46 -25
l39 0 1 42 c0 24 3 43 8 43 4 0 7 -18 7 -40 0 -39 1 -40 35 -40 21 0 35 5 35
13 0 9 2 9 9 -1 5 -8 22 -12 42 -10 32 3 34 5 34 41 0 20 3 37 8 37 4 0 7 -16
7 -35 0 -33 2 -35 35 -35 33 0 35 2 37 38 1 36 1 36 5 5 2 -18 10 -33 16 -34
7 0 19 -2 27 -5 67 -18 68 -18 75 18 5 19 10 27 13 18 3 -8 10 -18 16 -22 8
-5 7 -8 -1 -8 -7 0 -13 -4 -13 -10 0 -5 21 -10 46 -10 37 0 45 3 40 15 -3 8
-1 15 4 15 6 0 10 -4 10 -8 0 -5 31 -7 68 -5 l69 3 2 -52 c1 -51 10 -74 18
-51 2 7 11 9 19 6 11 -4 14 5 14 40 0 27 -5 47 -12 50 -8 3 -6 6 5 6 14 1 17
-8 17 -54 0 -30 3 -55 8 -55 21 1 31 20 34 68 3 45 6 52 23 51 11 0 14 -3 8
-6 -8 -2 -13 -22 -13 -45 0 -31 3 -39 14 -35 8 3 17 -1 20 -10 5 -12 9 -13 21
-3 12 10 15 10 17 -1 0 -8 4 9 7 36 4 29 2 53 -4 57 -5 4 13 7 40 6 36 -1 41
-2 18 -5 -31 -4 -33 -6 -33 -46 0 -29 3 -38 9 -28 8 12 12 12 25 2 11 -10 16
-10 16 -2 0 7 8 11 18 9 21 -4 31 50 10 63 -8 5 14 9 55 9 l67 0 0 -35 c0 -30
3 -34 23 -32 12 1 25 9 29 17 5 12 7 12 7 -2 1 -10 6 -18 11 -18 9 0 11 6 14
43 1 6 -9 13 -22 13 -39 2 -38 14 1 14 36 0 37 -1 37 -36 0 -24 4 -34 13 -31
6 2 12 16 12 30 -1 25 3 27 35 26 30 -2 31 -3 8 -6 -19 -3 -28 -10 -28 -22 0
-15 10 -18 65 -20 58 -1 65 0 65 18 0 11 -6 22 -12 24 -7 3 7 5 32 5 28 -1 34
-3 18 -5 -41 -6 -39 -43 2 -43 20 0 30 -5 30 -15 0 -11 11 -15 40 -15 33 0 40
3 40 20 0 11 5 20 10 20 6 0 10 -8 10 -18 0 -16 8 -19 53 -18 52 1 52 1 55 35
2 20 -2 37 -10 42 -8 6 0 8 22 8 19 -1 27 -3 18 -6 -13 -3 -18 -15 -18 -39 0
-32 2 -34 36 -34 36 0 36 0 32 40 -2 22 0 40 4 40 5 0 8 -18 8 -40 0 -30 4
-40 16 -40 8 0 13 4 9 9 -3 5 -1 12 5 16 5 3 10 -1 10 -10 0 -12 8 -16 32 -13
27 2 34 8 39 33 l7 30 1 -30 c1 -29 3 -31 36 -27 33 4 35 6 37 46 l1 41 6 -45
c4 -33 10 -44 21 -42 8 2 45 3 83 3 l67 -1 0 38 c0 20 5 44 10 52 7 11 10 2
10 -31 0 -25 2 -48 5 -51 9 -8 65 4 59 13 -3 5 -1 9 5 9 5 0 12 -6 14 -12 3
-7 6 1 7 17 1 17 5 39 10 50 6 15 9 8 9 -27 1 -35 5 -48 16 -48 16 0 38 34 28
44 -3 3 -1 6 5 6 6 0 13 -10 15 -22 l4 -23 2 23 c0 12 5 22 10 22 5 0 8 -8 7
-17 -1 -14 8 -19 37 -21 l39 -3 -4 38 -3 38 40 -3 c49 -5 60 -12 17 -12 -29 0
-32 -3 -32 -30 0 -28 2 -30 40 -30 36 0 40 3 41 25 2 41 4 45 14 48 5 1 10
-14 10 -33 0 -33 2 -35 39 -38 l39 -3 -6 41 -5 41 54 -2 c62 -3 74 -19 14 -19
-38 0 -40 -2 -40 -30 0 -28 2 -30 20 -20 11 6 26 10 33 9 6 -1 27 -1 46 0 30
1 33 3 29 26 -6 30 -1 34 32 24 24 -7 24 -7 3 -8 -16 -1 -23 -7 -23 -21 0 -17
7 -20 50 -20 37 0 50 4 51 15 3 28 4 33 12 41 4 4 7 -5 7 -19 0 -22 5 -27 25
-27 26 0 35 24 13 33 -8 3 -6 6 5 6 11 1 17 -6 17 -20 0 -15 5 -19 19 -14 16
5 18 0 16 -40 -2 -34 1 -45 12 -45 10 0 14 7 10 20 -4 15 0 20 14 20 10 0 19
5 19 10 0 6 0 13 1 18 0 4 -10 10 -23 14 l-23 6 23 1 c24 1 30 16 10 24 -8 3
-7 6 4 6 11 1 18 12 21 33 4 32 4 32 5 -4 2 -36 4 -38 35 -38 18 0 38 5 45 12
9 9 12 9 12 -1 0 -8 12 -11 37 -9 34 3 38 6 40 36 l3 32 -58 1 -57 2 60 7 c33
4 67 3 75 -1 10 -6 11 -8 3 -9 -8 0 -13 -14 -13 -35 0 -32 2 -35 30 -35 30 0
30 1 29 50 -2 59 0 63 25 44 11 -8 14 -14 8 -14 -7 0 -12 -16 -12 -40 l0 -40
45 2 45 1 0 55 c0 31 3 52 7 48 4 -4 8 -17 8 -29 0 -21 5 -22 78 -24 62 -1 79
1 84 14 3 8 0 19 -8 24 -10 6 -10 9 -1 9 6 0 12 12 12 27 0 14 3 24 6 21 3 -3
5 -24 6 -47 0 -46 8 -55 38 -46 13 4 20 14 19 28 -4 39 1 67 10 67 5 0 7 -9 4
-19 -4 -14 1 -21 19 -24 23 -4 23 -4 1 -6 -16 -1 -23 -7 -23 -21 0 -16 7 -20
34 -20 36 0 58 26 31 37 -13 5 -13 7 2 19 15 11 15 15 5 22 -19 12 8 23 37 15
12 -3 21 -1 21 6 0 5 6 8 13 5 8 -3 14 -18 14 -34 0 -27 -3 -30 -34 -30 -26 0
-33 -4 -33 -20 0 -22 15 -27 23 -7 4 10 6 10 6 0 1 -18 21 -16 21 2 0 8 5 15
10 15 6 0 10 -7 10 -15 0 -8 7 -15 15 -15 18 0 20 36 3 43 -10 4 -10 7 0 15 7
5 10 16 6 25 -3 10 -1 17 5 17 6 0 11 16 11 36 0 19 4 33 8 30 5 -3 7 -18 4
-34 -3 -25 0 -30 21 -34 41 -8 47 3 44 85 -2 77 0 81 36 78 13 -2 17 5 17 33
0 22 -5 36 -12 36 -10 0 -10 2 -1 8 7 5 13 40 16 87 l3 80 2 -83 c2 -80 3 -83
25 -80 20 3 22 9 24 67 2 61 13 102 13 48 0 -21 5 -27 23 -27 30 0 51 15 45
31 -3 8 -2 23 3 34 6 17 8 17 8 3 1 -25 21 -23 21 2 0 15 -7 20 -29 20 -17 0
-33 4 -36 10 -3 6 -1 10 4 10 12 0 15 120 4 121 -73 6 -96 19 -35 19 23 0 42
5 45 13 4 9 6 9 6 0 2 -23 31 -14 32 10 2 72 -4 143 -14 149 -7 4 6 8 29 8
l41 0 1 67 c0 37 -4 73 -10 80 -8 10 1 13 46 13 l56 0 0 90 0 90 -41 0 c-24 0
-38 4 -34 10 3 6 24 10 46 10 27 0 39 4 39 14 0 8 -6 17 -12 20 -10 5 -10 7
-1 12 18 8 16 34 -2 34 -8 0 -15 -6 -15 -12 0 -9 -3 -9 -9 1 -5 8 -16 11 -25
8 -8 -3 -18 -2 -21 3 -3 5 17 12 45 16 39 5 50 10 48 22 -2 9 -14 19 -28 23
l-25 6 25 4 c22 4 25 10 28 52 l3 47 -50 0 c-27 0 -53 4 -56 10 -4 6 13 10 44
10 l51 0 0 79 0 78 -46 7 c-26 3 -61 7 -78 7 -29 1 -28 2 9 10 22 4 56 8 76 8
35 1 35 1 34 44 l-1 42 -42 -2 c-24 -1 -40 2 -37 8 4 5 24 9 46 9 38 0 39 1
39 33 0 18 -5 38 -12 45 -9 9 -9 12 0 12 6 0 11 14 10 33 0 17 2 47 6 65 l8
32 -74 1 c-40 1 -61 4 -45 6 19 3 27 10 27 24 0 10 5 19 11 19 6 0 8 -7 5 -15
-5 -13 2 -15 34 -13 43 2 46 7 48 76 1 31 0 32 -38 32 -34 0 -40 -3 -40 -22 0
-30 -7 -19 -13 19 -3 18 -1 35 4 39 5 3 9 0 9 -5 0 -6 20 -11 45 -11 l44 0 -2
38 c-2 37 -2 37 -45 37 -42 0 -46 4 -43 37 1 10 -3 18 -10 18 -9 0 -9 3 1 14
6 8 11 30 10 48 -4 62 0 121 7 114 4 -3 6 -42 5 -86 l-2 -80 40 0 40 0 1 58
c1 31 3 76 4 100 l3 42 -76 1 c-86 1 -66 16 23 18 43 1 51 4 52 21 1 11 -1 20
-5 20 -4 0 -5 25 -4 55 l4 55 -30 0 c-26 0 -31 -4 -35 -27 l-4 -28 -2 28 c-1
29 -31 39 -31 10 0 -15 -1 -15 -12 -1 -11 13 -32 14 -133 9 l-120 -6 3 -469
c2 -429 1 -470 -14 -487 -9 -11 -23 -19 -30 -19 -19 0 -153 141 -154 161 0 4
-12 14 -26 24 -21 14 -28 14 -42 3 -15 -11 -15 -11 -5 2 6 8 13 24 15 35 1 10
11 27 21 37 17 18 24 44 9 34 -5 -3 -9 1 -9 9 0 10 4 12 12 5 15 -12 25 -3 25
23 0 32 -50 62 -153 94 -52 15 -129 78 -153 124 -21 42 -17 75 18 141 38 72
110 137 198 181 57 28 74 32 146 32 45 0 80 3 78 6 -5 8 27 21 34 14 3 -3 0
-5 -6 -5 -7 0 -12 -7 -12 -15 0 -8 7 -15 15 -15 12 0 15 19 15 110 0 74 4 110
11 110 7 0 9 -12 5 -34 -4 -19 -4 -47 0 -62 l7 -27 121 8 c67 4 129 7 139 7
17 -1 19 7 20 68 1 23 -3 25 -53 28 -81 4 -85 10 -6 11 67 1 68 1 64 26 -3 13
-1 22 3 19 5 -3 9 -14 9 -25 0 -15 7 -19 35 -19 34 0 35 1 35 40 0 22 -3 40
-7 40 -80 4 -189 13 -192 16 -2 2 44 4 102 4 l107 0 0 47 c0 25 -3 43 -7 40
-3 -4 -12 1 -20 11 -8 9 -11 11 -7 3 4 -9 3 -12 -4 -7 -6 4 -8 14 -5 23 4 11
3 14 -5 9 -8 -5 -10 -2 -6 8 3 9 18 16 33 16 20 0 23 2 11 10 -8 5 -27 10 -42
10 -28 0 -28 -1 -28 -64 0 -36 -4 -68 -10 -71 -6 -4 -10 22 -10 69 0 51 -4 76
-12 76 -6 0 -8 3 -4 7 4 4 22 6 41 5 18 -1 37 3 41 9 3 6 8 40 10 75 l3 64
-32 0 -32 0 3 -65 c2 -36 0 -65 -5 -65 -5 0 -9 10 -10 23 0 12 -1 43 -2 69
l-1 47 -47 4 -48 3 48 2 47 2 0 70 c0 49 -4 70 -12 70 -10 0 -10 2 -1 8 9 6
12 43 11 127 l-2 120 25 -3 c32 -5 38 -12 11 -12 -17 0 -22 -6 -22 -25 0 -20
5 -25 25 -25 17 0 25 -5 24 -17 0 -11 -3 -13 -6 -5 -2 6 -13 12 -24 12 -15 0
-19 -7 -19 -36 0 -29 3 -35 16 -30 9 3 27 6 40 6 19 0 24 5 24 24 0 14 -5 28
-11 32 -8 5 -8 9 1 14 16 10 20 43 6 52 -8 5 -7 8 2 8 6 0 12 7 12 15 0 14
-13 18 -70 19 -30 1 -30 0 -30 82 0 59 2 65 15 54 9 -7 12 -16 8 -19 -5 -3 -9
-27 -11 -53 l-3 -48 45 0 45 0 -1 74 -2 74 -120 1 c-65 0 -121 3 -124 6 -3 3
29 5 72 5 l76 0 -1 70 c-1 39 1 74 5 77 3 4 6 -28 6 -70 l0 -77 29 0 c16 0 36
3 45 6 18 7 22 54 5 54 -8 0 -8 4 1 15 14 17 5 35 -18 36 -12 0 -11 3 6 9 12
5 22 16 22 25 0 11 -12 15 -52 15 -29 0 -60 5 -68 10 -11 7 4 10 50 10 l65 0
-3 43 c-3 40 -5 42 -35 41 -57 -2 -60 -3 -54 -24 3 -11 1 -23 -4 -26 -5 -3 -9
10 -10 28 -2 76 0 120 5 125 3 4 6 -1 6 -10 0 -9 5 -17 12 -17 9 0 9 -3 0 -12
-7 -7 -12 -20 -12 -30 0 -15 8 -18 45 -18 l44 0 0 70 -1 70 -44 0 c-33 0 -44
-4 -44 -15 0 -13 -2 -13 -14 -3 -8 7 -11 15 -7 18 3 3 7 26 9 53 2 41 0 48
-20 57 l-23 9 23 0 c21 1 23 5 21 41 -2 21 0 42 4 46 4 4 7 -14 7 -39 l0 -47
40 0 c22 0 40 4 40 9 0 16 -18 22 -23 9 -2 -7 -6 2 -9 19 -2 18 -1 38 4 45 6
10 8 10 8 1 0 -7 5 -13 11 -13 6 0 9 7 7 16 -2 13 -21 17 -98 20 -52 1 -99 3
-103 4 -5 0 -1 7 7 16 16 16 22 69 8 77 -4 3 -46 3 -94 0 l-86 -6 -1 -103 0
-104 27 -1 c21 -1 23 -2 7 -6 -25 -7 -35 -21 -35 -55 0 -23 5 -27 33 -31 l32
-4 -34 -1 -33 -2 8 -67 c8 -73 6 -824 -2 -833 -11 -10 -34 34 -30 57 3 13 1
21 -5 18 -5 -4 -7 -11 -4 -16 4 -5 2 -9 -4 -9 -5 0 -11 6 -14 13 -3 6 -4 2 -4
-10 1 -12 5 -19 9 -17 14 9 21 -26 8 -41 -10 -12 -10 -19 1 -32 7 -10 -19 13
-59 51 -60 59 -69 72 -59 85 11 14 10 14 -5 2 -17 -12 -23 -9 -19 12 1 5 -3 6
-9 2 -14 -9 -42 14 -33 28 3 5 2 7 -4 4 -15 -10 -62 45 -60 70 1 25 12 21 12
-5 0 -16 26 -21 65 -11 8 2 14 -2 12 -9 -1 -8 2 -11 8 -7 6 4 6 12 -2 24 -10
16 -13 17 -26 5 -15 -16 -36 -9 -26 8 4 6 2 8 -3 5 -6 -4 -16 0 -23 9 -7 8
-20 12 -28 9 -12 -4 -13 -3 -2 10 7 8 16 12 21 9 5 -3 8 -1 7 4 -3 10 120 128
163 155 16 11 26 24 22 30 -3 5 -1 7 5 3 6 -3 13 -2 16 3 3 5 -6 11 -20 14
-19 3 -24 1 -19 -11 4 -12 2 -12 -8 -4 -8 7 -17 9 -20 5 -4 -3 -7 -1 -7 5 0 7
6 12 13 12 9 0 8 3 -2 9 -7 5 -11 14 -7 19 4 6 -4 16 -16 23 -87 45 -258 153
-282 178 l-29 30 30 38 c17 21 48 63 69 93 22 30 44 55 49 55 6 0 25 4 43 9
23 5 32 13 32 29 0 18 2 19 13 6 8 -11 21 -14 42 -8 17 3 22 7 13 8 -10 0 -18
7 -18 14 0 6 -5 4 -11 -6 -10 -18 -11 -18 -25 0 -7 10 -14 14 -14 8 0 -5 -5
-3 -11 5 -8 11 -9 8 -4 -15 4 -16 3 -27 -1 -23 -3 4 -16 2 -28 -4 -11 -6 -18
-7 -14 -3 4 5 3 14 -3 21 -14 17 -2 37 18 30 8 -3 11 -1 8 4 -3 6 3 10 15 10
11 0 26 5 33 10 7 6 21 17 32 26 27 19 -77 -18 -112 -41 -22 -15 -23 -18 -9
-34 18 -19 9 -39 -17 -35 -10 1 -15 -2 -11 -9 4 -7 -8 3 -26 21 -18 17 -39 32
-46 32 -22 0 -17 8 46 77 33 36 57 69 55 73 -9 15 75 109 179 201 58 50 112
106 120 123 l16 31 0 -35 c0 -35 1 -36 36 -32 40 5 53 25 35 54 -7 12 -8 17
-2 13 6 -3 11 -1 11 5 0 6 5 8 11 4 6 -3 15 -1 19 6 5 7 22 13 39 12 17 0 33
4 37 9 3 6 0 10 -7 8 -8 -1 -49 -1 -91 0 l-78 1 0 88 c0 85 -21 262 -38 332
-21 80 -77 206 -123 274 -72 108 -68 107 -131 41 -29 -31 -56 -62 -61 -70 -4
-8 1 -46 14 -89 19 -66 20 -80 9 -120 -7 -24 -22 -54 -34 -65 -30 -28 -196
-108 -242 -117 l-37 -7 8 34 c19 86 22 128 13 208 -13 126 -35 221 -55 244
-36 39 -109 68 -327 129 -64 18 -88 30 -129 68 -60 56 -61 54 33 193 72 106
97 166 67 154 -10 -4 -16 -2 -14 6 2 14 -414 23 -466 9 -23 -6 -39 -20 -54
-48 -12 -21 -69 -85 -125 -142 l-103 -102 -115 -41 c-63 -22 -125 -43 -137
-46 l-23 -5 7 139 c5 116 3 147 -11 190 -22 65 -36 77 -81 69 -25 -5 -39 -15
-50 -36 -13 -25 -34 -204 -35 -293 0 -24 -8 -32 -56 -54 -67 -30 -119 -27
-221 14 -73 29 -83 41 -128 154 l-32 79 -41 -53 c-91 -121 -172 -181 -234
-175 -26 2 -33 9 -43 38 -12 35 -12 35 -77 38 -61 3 -68 1 -100 -27 -32 -28
-40 -30 -102 -29 -41 1 -73 7 -81 14 -11 11 -14 11 -19 -3 -6 -14 -13 -11 -42
18 -20 19 -57 61 -82 94 l-47 60 -7 -47 c-3 -26 -16 -61 -28 -78 -34 -48 -114
-106 -170 -125 l-50 -17 -65 31 c-35 17 -71 41 -80 55 -9 13 -37 87 -63 165
-26 77 -51 142 -57 143 -5 1 -24 -22 -41 -50 -29 -48 -31 -57 -27 -124 l4 -73
-15 39 c-8 21 -19 43 -23 47 -6 6 -35 -7 -71 -31 -94 -60 -138 -80 -178 -80
-36 0 -37 0 -19 20 14 16 15 20 4 20 -8 0 -25 8 -38 17 -22 15 -23 17 -6 23
27 9 -163 206 -208 215 -18 4 -39 8 -48 11 -8 2 -18 1 -22 -2z m228 -244 c-28
-12 -47 -12 -40 0 3 6 18 10 33 9 24 0 25 -1 7 -9z m2919 -42 c-4 -13 -8 -36
-9 -53 -1 -16 -9 -44 -18 -62 -21 -40 -21 -47 0 -39 55 22 -148 -136 -296
-229 l-45 -28 24 -19 c38 -31 105 -62 220 -103 58 -21 119 -45 135 -53 60 -32
244 -64 379 -67 144 -3 160 -11 154 -70 -3 -27 -7 -30 -38 -32 -19 -2 -75 -5
-125 -9 l-90 -5 102 -104 c152 -155 146 -134 78 -262 -68 -126 -111 -186 -167
-230 -22 -18 -37 -33 -32 -34 5 0 -1 -4 -13 -9 -13 -5 -23 -17 -23 -27 0 -15
2 -15 15 3 8 10 2 -12 -14 -51 -25 -58 -27 -71 -15 -78 19 -11 223 -57 251
-57 19 0 21 3 13 30 -5 18 -5 32 1 35 12 8 16 -7 23 -87 4 -55 1 -77 -19 -129
-14 -35 -25 -71 -25 -81 0 -11 -15 -43 -34 -73 -19 -29 -32 -56 -28 -60 3 -3
-1 -3 -11 1 -9 3 -17 10 -17 16 0 5 4 7 8 4 4 -2 8 5 8 16 0 18 -3 17 -23 -8
-38 -47 -74 -114 -68 -124 14 -23 51 -8 80 33 41 58 54 84 47 93 -4 4 -2 4 5
0 6 -3 14 -2 18 4 12 20 27 10 21 -15 -18 -69 33 22 78 142 15 39 34 77 42 83
8 7 14 25 14 40 0 15 3 42 6 59 5 25 11 31 28 29 18 -3 22 -12 27 -67 4 -37
12 -67 20 -71 13 -9 98 -20 169 -23 19 -1 67 2 105 6 45 4 63 3 50 -2 -11 -5
-35 -10 -54 -10 -33 -1 -34 -1 -16 -21 18 -19 17 -20 -2 -20 -52 0 -132 -107
-183 -243 -17 -44 -31 -64 -61 -84 -50 -33 -50 -40 0 -11 22 12 42 20 45 17
10 -10 11 -723 2 -935 l-9 -202 28 -18 c25 -16 27 -21 22 -66 l-6 -49 85 -94
c47 -52 93 -101 103 -107 10 -7 33 -31 52 -52 22 -26 -4 -8 -74 50 -152 125
-189 154 -196 154 -4 0 -1 -37 5 -82 7 -46 13 -107 13 -137 l1 -53 -37 7 c-51
9 -68 27 -181 185 -53 74 -139 178 -190 231 -51 52 -101 107 -110 120 -76 113
-222 259 -258 259 -14 0 -13 -33 2 -84 4 -12 2 -16 -5 -12 -7 5 -9 1 -5 -8 3
-9 10 -13 15 -10 5 3 6 -1 4 -8 -7 -18 24 -45 103 -93 96 -57 66 -54 -40 5
-130 72 -195 92 -267 84 -44 -5 -65 -2 -89 10 -31 16 -50 21 -39 10 8 -8 -13
-65 -22 -60 -4 3 -15 -11 -23 -30 -15 -32 -15 -35 -1 -29 13 4 14 3 3 -10 -7
-8 -16 -12 -21 -9 -5 3 -6 -1 -3 -9 3 -8 -2 -20 -11 -27 -13 -11 -15 -10 -9 6
5 15 4 16 -4 4 -6 -8 -8 -18 -6 -22 12 -19 -131 -179 -152 -171 -23 8 -78 91
-147 220 -36 67 -97 169 -136 226 -38 58 -73 116 -76 129 -5 18 6 41 45 96 73
104 82 128 64 172 -8 19 -25 45 -37 58 -15 16 -17 21 -6 17 12 -4 18 1 21 19
5 24 2 26 -24 24 -18 -2 -27 -7 -24 -15 7 -17 3 -17 -40 9 -29 17 -40 19 -55
10 -19 -12 -19 -11 -1 35 10 27 60 118 111 203 75 126 107 169 172 232 84 81
95 106 57 132 -43 31 -48 29 -331 -136 -103 -60 -210 -119 -237 -132 -75 -35
-221 -153 -247 -200 -12 -22 -1 -30 -165 110 -46 39 -123 92 -173 119 -49 26
-121 65 -158 87 -70 41 -107 54 -107 37 0 -5 -7 -9 -16 -9 -8 0 -12 -5 -9 -10
4 -6 3 -9 -2 -8 -14 4 -53 -13 -53 -23 0 -6 -4 -7 -10 -4 -21 13 -8 -14 63
-130 101 -166 142 -239 129 -231 -6 4 -28 33 -48 66 -21 35 -41 57 -48 53 -6
-3 -8 -3 -4 1 12 14 -32 47 -60 44 -34 -4 -44 -45 -15 -66 17 -12 17 -14 1
-26 -16 -12 -16 -17 8 -86 13 -41 29 -79 35 -87 8 -9 1 -25 -30 -64 -23 -28
-41 -58 -41 -65 0 -15 45 -93 89 -154 36 -50 35 -65 -16 -157 -32 -57 -36 -61
-61 -54 -26 8 -90 12 -232 16 -36 1 -73 -2 -82 -7 -14 -7 -18 -4 -18 13 0 19
-2 20 -19 8 -104 -74 -208 -139 -223 -139 -10 0 -26 12 -34 28 -61 109 -76
133 -80 129 -3 -3 -1 -13 5 -24 12 -21 51 -105 51 -110 0 -1 -15 -9 -33 -17
-40 -16 -76 -59 -84 -98 -3 -18 -12 -28 -23 -28 -10 0 -20 -10 -24 -22 -10
-40 -7 -50 14 -43 32 10 25 -19 -30 -135 -52 -110 -58 -135 -37 -163 10 -15
17 -15 43 -5 27 10 36 9 59 -6 20 -13 30 -15 40 -6 20 17 75 -3 126 -46 22
-19 46 -34 52 -34 43 -1 161 -21 177 -30 25 -13 26 -68 5 -171 -16 -74 -29
-96 -77 -131 -22 -15 -32 -17 -48 -8 -15 8 -18 8 -14 -3 3 -9 -13 -28 -43 -50
-97 -73 -132 -105 -125 -112 4 -4 -3 -3 -15 4 -12 6 -23 14 -25 18 -7 18 -147
105 -158 98 -15 -9 4 -31 44 -52 27 -14 29 -17 12 -23 -17 -6 -14 -9 17 -29
40 -24 42 -28 27 -51 -6 -9 -5 -17 2 -21 7 -5 2 -23 -16 -55 l-27 -49 27 25
27 25 -13 -25 c-36 -69 -225 -221 -203 -163 5 12 3 14 -8 7 -8 -4 -24 -9 -37
-10 -21 -1 -21 0 -6 17 15 17 13 17 -24 -1 -23 -11 -51 -20 -63 -20 -23 0
-106 78 -129 120 -10 19 -10 21 7 16 15 -5 23 1 32 21 7 15 25 43 40 62 16 20
38 55 50 79 12 23 25 42 30 42 12 0 42 76 37 92 -11 36 -15 78 -6 73 5 -3 2
11 -6 31 l-15 37 48 42 c41 36 46 44 35 58 -8 9 -28 21 -45 27 -18 5 -39 23
-49 40 -19 34 -38 39 -38 10 0 -22 -37 -60 -58 -60 -9 0 -4 17 18 58 l32 57
-42 -45 c-23 -25 -46 -51 -51 -57 -15 -20 -42 -16 -34 5 5 14 4 15 -6 5 -17
-17 -44 -16 -59 2 -16 20 -5 32 14 16 12 -10 17 -8 26 8 9 17 8 20 -5 15 -22
-9 -18 1 15 40 21 24 27 37 19 42 -7 4 -16 -1 -21 -11 -18 -30 -66 -80 -73
-74 -3 4 10 25 30 49 19 23 39 49 43 56 11 19 36 9 52 -22 7 -13 15 -22 18
-20 2 3 -5 20 -17 39 -26 43 -26 51 -1 44 11 -3 23 -1 26 4 3 6 11 5 20 -2 23
-19 29 -1 9 22 -12 13 -15 23 -9 27 6 4 11 16 11 27 0 11 3 36 7 55 5 26 4 30
-3 15 -5 -11 -10 -14 -10 -7 -1 10 -5 10 -17 -2 -8 -9 -20 -16 -25 -16 -20 0
-6 20 45 62 57 47 58 54 18 100 -14 17 -19 14 -75 -45 -69 -71 -207 -242 -245
-301 -14 -23 -50 -67 -80 -98 l-55 -57 -49 25 c-26 13 -48 26 -48 28 0 2 15 2
34 -1 19 -2 37 0 40 5 7 12 -8 129 -18 139 -6 6 -40 -1 -164 -33 -18 -5 -21
-3 -16 10 5 14 2 15 -22 6 -27 -10 -28 -9 -9 5 11 9 58 37 104 63 122 69 149
96 162 162 5 30 9 176 8 325 0 149 2 419 7 602 l7 332 31 -21 c27 -18 26 -16
-11 23 -30 33 -46 62 -62 113 -11 38 -15 64 -8 57 11 -11 57 -16 57 -6 0 11
-74 111 -93 126 -20 16 -19 17 40 34 68 19 66 15 79 135 3 36 10 71 14 78 12
24 38 -14 61 -91 30 -105 51 -154 77 -185 l23 -27 -16 32 c-17 37 -19 62 -6
95 5 13 12 35 15 49 3 15 27 48 53 73 l47 46 -45 47 c-43 45 -43 45 -10 27 18
-10 47 -32 64 -47 23 -21 37 -27 55 -22 18 4 22 10 17 23 -4 9 -10 40 -14 68
-4 30 -24 82 -50 128 -23 43 -41 80 -39 82 3 2 33 -44 67 -102 47 -79 65 -120
70 -157 5 -46 9 -51 36 -59 17 -4 38 -5 48 -2 9 3 17 1 17 -5 0 -6 -5 -11 -10
-11 -6 0 11 -33 38 -72 27 -40 66 -107 87 -148 21 -41 49 -89 62 -107 28 -39
31 -58 4 -42 -25 16 -57 -9 -103 -79 -33 -50 -34 -56 -27 -104 6 -34 17 -60
35 -79 29 -31 30 -31 219 -114 72 -31 135 -61 142 -67 8 -7 17 0 29 24 9 18
56 89 103 158 48 69 105 154 126 190 21 36 49 79 61 95 26 35 59 110 69 154 4
17 10 31 15 31 4 0 0 -26 -10 -57 -18 -57 -14 -83 12 -83 6 0 23 -11 40 -25
36 -31 64 -34 49 -6 -9 17 -18 58 -25 120 -1 13 -14 34 -28 46 -29 25 -37 -2
79 279 69 169 74 183 71 245 l-3 66 -67 17 c-38 10 -96 29 -130 43 -42 17 -91
28 -146 32 l-83 6 10 -26 c16 -42 68 -324 81 -437 12 -108 18 -125 51 -135 23
-7 25 -25 4 -25 -8 0 -15 5 -15 10 0 20 -35 9 -109 -34 -42 -25 -125 -65 -186
-91 -60 -25 -138 -61 -172 -80 -35 -19 -63 -31 -63 -26 0 5 20 29 45 54 42 43
55 67 37 67 -4 0 -14 -6 -21 -12 -11 -11 -12 -10 -6 2 8 13 7 13 -8 1 -9 -7
-17 -10 -17 -6 0 4 -7 2 -15 -5 -13 -11 -14 -10 -9 5 5 11 3 16 -2 12 -16 -9
-11 38 6 58 8 11 10 16 3 11 -9 -5 -11 -2 -7 8 3 9 10 14 14 11 5 -3 11 -1 14
3 5 8 -34 9 -41 2 -2 -1 -7 -4 -13 -5 -5 -1 -13 -4 -17 -5 -5 -1 -11 -2 -15
-1 -5 0 -8 -4 -8 -10 0 -5 -5 -7 -10 -4 -6 4 -8 11 -5 16 4 5 1 9 -4 9 -6 0
-11 5 -11 11 0 7 -18 33 -40 58 -63 72 -64 74 -83 130 -19 54 -17 79 3 42 6
-12 16 -21 22 -21 6 0 3 9 -7 20 -18 20 -18 22 0 53 l19 32 -36 -27 c-20 -16
-41 -28 -46 -28 -14 0 -203 223 -223 263 -9 18 -25 58 -35 90 l-18 57 34 38
c101 109 149 157 190 185 l45 32 -50 8 c-27 4 -93 6 -145 5 l-95 -3 3 39 c6
73 15 80 91 72 37 -3 94 -15 126 -26 59 -20 119 -65 109 -82 -10 -16 31 -8 82
16 34 16 59 36 73 60 19 30 126 116 145 116 13 0 243 105 268 122 27 19 28 20
11 51 -9 18 -27 48 -42 67 l-25 35 31 -28 c23 -21 52 -33 119 -47 73 -15 92
-23 111 -46 26 -33 20 -53 -9 -27 -12 10 -5 -4 15 -32 62 -88 257 -279 312
-305 28 -14 68 -37 90 -51 22 -14 47 -29 55 -34 8 -4 -37 45 -100 109 -93 94
-124 119 -163 132 -57 19 -107 59 -107 85 0 29 -28 90 -48 106 -9 7 6 3 35
-10 29 -13 59 -30 67 -37 13 -10 91 -10 393 -1 441 13 620 14 626 4 3 -5 -72
-9 -167 -10 -195 -2 -197 -2 -213 -15 -7 -5 -17 -7 -23 -3 -5 3 -10 -2 -10
-12 0 -15 -2 -16 -10 -3 -8 12 -10 10 -10 -10 -1 -22 -2 -23 -11 -7 -13 22
-31 13 -22 -11 6 -14 4 -15 -9 -5 -19 16 -32 5 -16 -14 6 -8 7 -13 2 -12 -26
5 -45 -2 -38 -13 6 -10 4 -10 -8 0 -9 7 -31 11 -52 8 -20 -2 -36 0 -36 5 0 5
-10 9 -23 9 -13 0 -27 3 -31 7 -9 10 -49 12 -64 3 -10 -5 -4 -12 20 -27 27
-16 57 -20 173 -24 278 -8 729 -3 758 9 27 12 39 39 12 28 -8 -3 -15 -1 -15 5
0 6 -8 6 -22 -1 -20 -9 -21 -9 -7 2 9 7 15 21 13 31 -1 9 2 15 7 11 5 -3 7
-10 4 -15 -4 -5 -1 -9 4 -9 6 0 11 6 11 14 0 7 8 13 18 13 37 -1 122 16 122
25 0 10 39 6 59 -6 10 -7 12 -5 6 3 -5 9 -1 12 15 9 13 -1 28 -11 34 -20 18
-30 -36 -71 -136 -103 -79 -25 -92 -32 -131 -79 -24 -28 -72 -91 -107 -141
-34 -49 -74 -104 -89 -121 -80 -96 -126 -157 -123 -165 1 -5 -5 -9 -13 -9 -8
0 -25 -18 -37 -40 -13 -22 -27 -40 -32 -40 -6 0 -22 12 -37 26 l-26 25 -7 -32
c-4 -20 -1 -43 8 -60 8 -16 12 -29 10 -29 -13 0 -86 43 -139 82 -33 24 -105
75 -160 113 -55 38 -138 105 -185 150 -47 45 -111 103 -144 128 -32 26 -78 70
-103 97 -25 28 -52 50 -60 50 -24 0 -10 -84 26 -161 17 -35 55 -119 84 -186
53 -121 54 -123 108 -152 196 -109 361 -180 513 -221 58 -16 93 -20 129 -16
98 13 324 120 380 179 39 42 34 49 -23 28 -28 -11 -52 -15 -56 -10 -3 5 -9 7
-14 4 -4 -3 -11 2 -14 11 -3 8 -10 12 -16 9 -5 -3 -10 1 -10 10 0 9 -4 13 -10
10 -27 -17 -4 14 43 58 l52 50 -48 -33 c-27 -17 -73 -56 -102 -86 -64 -65 -84
-72 -26 -9 39 42 47 55 36 55 -3 0 -46 -37 -96 -81 -49 -45 -93 -79 -95 -76
-7 7 37 84 103 178 38 55 74 92 130 133 42 31 83 54 90 52 7 -3 13 -1 13 4 0
6 10 10 23 10 12 0 27 4 33 8 15 11 104 189 97 196 -4 3 -1 6 5 6 6 0 14 9 17
20 4 11 15 20 27 20 11 0 35 15 53 34 17 18 47 41 66 51 19 10 46 32 62 51 41
49 137 104 182 104 32 0 38 4 48 30 13 35 18 36 76 10 24 -11 45 -19 46 -18 1
2 13 24 28 49 30 53 90 115 165 172 50 38 52 41 52 88 0 45 3 50 37 74 22 14
52 25 71 25 30 0 33 -2 26 -22z m-2531 -16 c35 -36 47 -106 40 -224 -5 -72 -8
-86 -19 -77 -9 8 -12 22 -7 43 12 59 9 219 -5 224 -6 2 -10 8 -6 13 3 5 -5 9
-17 9 -12 0 -19 3 -16 7 4 3 -1 12 -11 19 -14 11 -15 13 -1 14 8 0 28 -13 42
-28z m2928 11 c13 -16 12 -17 -3 -4 -10 7 -18 15 -18 17 0 8 8 3 21 -13z
m-561 -43 c0 -5 -7 -10 -15 -10 -8 0 -15 5 -15 10 0 6 7 10 15 10 8 0 15 -4
15 -10z m-1936 -100 c-5 -5 -32 -12 -59 -15 l-50 -5 45 14 c56 17 77 19 64 6z
m983 -337 c-20 -2 -52 -2 -70 0 -17 2 0 4 38 4 39 0 53 -2 32 -4z m113 -3 c0
-5 -2 -10 -4 -10 -3 0 -8 5 -11 10 -3 6 -1 10 4 10 6 0 11 -4 11 -10z m265 0
c-3 -5 -12 -10 -18 -10 -7 0 -6 4 3 10 19 12 23 12 15 0z m-403 -367 c-18 -34
-112 -133 -127 -133 -3 0 21 31 54 70 33 38 65 79 71 90 21 39 22 13 2 -27z
m-891 -91 c27 -18 215 -158 259 -193 32 -26 -79 34 -144 77 -51 34 -91 37 -62
5 22 -24 48 -91 42 -107 -5 -12 -14 -11 -53 4 -26 10 -68 31 -92 46 l-43 28
20 21 c29 31 43 72 36 107 -7 34 0 37 37 12z m3766 -498 c-3 -3 -12 -4 -19 -1
-8 3 -5 6 6 6 11 1 17 -2 13 -5z m-1152 -69 c52 -24 95 -49 95 -55 0 -14 8
-16 -138 38 -28 11 -50 16 -46 11 3 -5 0 -9 -5 -9 -6 0 -11 3 -11 8 0 4 -3 17
-6 30 -9 31 2 29 111 -23z m1202 23 c-3 -8 -6 -5 -6 6 -1 11 2 17 5 13 3 -3 4
-12 1 -19z m-597 -32 c0 -2 -8 -10 -17 -17 -16 -13 -17 -12 -4 4 13 16 21 21
21 13z m-5244 -384 l15 -52 -50 -88 c-48 -83 -164 -232 -181 -232 -21 0 -19
21 3 29 13 5 32 22 42 38 10 15 25 34 32 42 26 26 92 129 98 153 7 26 13 58
14 71 1 5 5 6 10 2 5 -3 -1 30 -15 72 -13 43 -24 80 -23 83 0 14 41 -72 55
-118z m197 111 c-7 -2 -21 -2 -30 0 -10 3 -4 5 12 5 17 0 24 -2 18 -5z m-83
-37 c0 -2 -8 -10 -17 -17 -16 -13 -17 -12 -4 4 13 16 21 21 21 13z m4321 -160
c14 8 11 -2 -4 -14 -10 -8 -13 -6 -14 11 0 12 1 16 4 9 3 -6 9 -10 14 -6z
m-2524 -228 c-3 -8 -6 -5 -6 6 -1 11 2 17 5 13 3 -3 4 -12 1 -19z m3926 -95
c-7 -2 -19 -2 -25 0 -7 3 -2 5 12 5 14 0 19 -2 13 -5z m-438 -43 c3 -5 1 -10
-4 -10 -6 0 -11 5 -11 10 0 6 2 10 4 10 3 0 8 -4 11 -10z m-5720 -17 c-12 -8
-13 -13 -5 -18 9 -6 9 -10 -1 -16 -26 -16 -38 -10 -35 19 2 15 4 27 5 27 0 0
12 0 26 0 22 0 23 -2 10 -12z m2440 -3 c-3 -5 -11 -10 -16 -10 -6 0 -7 5 -4
10 3 6 11 10 16 10 6 0 7 -4 4 -10z m3542 -487 c-3 -10 -5 -4 -5 12 0 17 2 24
5 18 2 -7 2 -21 0 -30z m-2613 -259 c80 -69 182 -193 220 -267 15 -29 19 -41
9 -27 -84 117 -144 188 -221 263 -94 92 -135 137 -97 106 11 -8 51 -42 89 -75z
m2614 31 c-3 -3 -9 2 -12 12 -6 14 -5 15 5 6 7 -7 10 -15 7 -18z m-4228 -15
c12 -16 19 -30 16 -30 -2 0 -14 14 -26 30 -12 17 -19 30 -16 30 2 0 14 -13 26
-30z m1200 -55 c30 -20 82 -51 115 -67 33 -17 78 -43 100 -58 22 -15 121 -69
220 -120 99 -52 205 -109 235 -129 30 -19 58 -35 62 -36 19 -1 15 -16 -11 -49
-19 -23 -35 -62 -45 -105 -9 -37 -34 -114 -58 -172 -37 -91 -42 -115 -46 -199
-3 -86 -1 -99 21 -140 20 -39 22 -47 10 -59 -11 -10 -30 -5 -106 32 -51 25
-132 71 -182 103 -131 84 -193 114 -235 114 -29 0 -41 6 -53 24 -26 39 -77 51
-135 32 -57 -19 -456 -223 -556 -284 -38 -24 -70 -41 -71 -40 -1 2 2 48 7 103
14 176 0 254 -80 450 -55 134 -87 201 -102 210 -19 12 -11 26 10 15 14 -8 29
-7 55 5 20 8 39 14 43 12 9 -3 149 70 281 146 113 65 199 107 219 107 6 0 12
-11 12 -24 0 -14 5 -28 11 -31 7 -5 8 4 4 27 -6 31 -3 36 70 98 120 102 109
100 205 35z m-1159 -2 c13 -16 12 -17 -3 -4 -10 7 -18 15 -18 17 0 8 8 3 21
-13z m-1741 -26 c0 -1 -24 -25 -52 -52 l-53 -50 50 53 c46 48 55 57 55 49z
m1833 -90 c20 -22 37 -44 37 -49 0 -4 7 -8 15 -8 9 0 18 -7 22 -16 4 -12 16
-5 51 33 l46 48 -32 -55 c-18 -30 -36 -62 -41 -70 -13 -20 -38 4 -110 105 -63
89 -86 126 -50 81 13 -16 41 -47 62 -69z m200 58 c-3 -9 -8 -14 -10 -11 -3 3
-2 9 2 15 9 16 15 13 8 -4z m235 -5 c28 0 29 5 -27 -88 -46 -76 -76 -105 -150
-142 l-44 -22 41 49 c22 26 61 88 87 136 34 63 51 85 58 78 6 -6 22 -11 35
-11z m816 -19 c-3 -3 -15 6 -27 18 l-22 24 27 -19 c14 -10 24 -21 22 -23z
m1486 19 c8 -5 11 -10 5 -10 -5 0 -17 5 -25 10 -8 5 -10 10 -5 10 6 0 17 -5
25 -10z m-1410 -53 l25 -32 -31 22 c-17 12 -36 29 -43 37 -10 12 -9 14 6 9 10
-3 29 -19 43 -36z m3057 -93 c10 3 24 2 32 -3 17 -11 -50 -20 -76 -10 -10 4
-12 8 -5 8 6 1 12 11 13 24 l0 22 10 -23 c6 -16 14 -22 26 -18z m-107 -4 c0
-5 -5 -10 -11 -10 -5 0 -7 5 -4 10 3 6 8 10 11 10 2 0 4 -4 4 -10z m-5150 -4
c0 -2 -7 -7 -16 -10 -8 -3 -12 -2 -9 4 6 10 25 14 25 6z m5163 -63 c-7 -2 -19
-2 -25 0 -7 3 -2 5 12 5 14 0 19 -2 13 -5z m-1755 -90 c15 -27 19 -44 12 -48
-6 -4 -9 -3 -8 2 4 13 -48 73 -64 73 -9 0 -9 3 2 10 22 14 33 8 58 -37z m-332
-95 c4 -6 3 -9 -2 -6 -5 3 -20 1 -34 -5 -55 -22 -71 -15 -17 8 40 18 44 18 53
3z m-3600 -55 c-7 -7 -26 7 -26 19 0 6 6 6 15 -2 9 -7 13 -15 11 -17z m3456
-7 c6 4 8 2 4 -4 -3 -6 -2 -13 3 -16 5 -3 12 1 15 10 5 13 9 14 20 5 9 -8 16
-8 20 -2 11 17 38 0 33 -20 -7 -26 2 -24 13 4 9 22 9 22 10 -3 0 -15 3 -20 8
-13 4 7 13 9 21 4 7 -5 31 -2 53 6 22 7 49 11 59 8 22 -7 46 -82 31 -97 -18
-18 -115 -18 -135 0 -16 14 -19 14 -32 -4 -8 -10 -15 -25 -15 -31 0 -7 -14
-20 -30 -28 -28 -15 -33 -14 -60 2 -17 10 -36 34 -46 57 -8 23 -26 55 -39 72
-13 17 -21 34 -18 38 9 9 45 7 39 -2 -2 -4 4 -8 15 -8 10 0 19 4 19 8 0 4 -5
8 -11 8 -5 0 -7 5 -3 12 6 9 9 9 12 0 2 -7 9 -9 14 -6z m1520 -76 c14 -25 36
-63 49 -85 18 -32 19 -37 5 -26 -16 14 -86 141 -86 157 0 10 4 4 32 -46z
m-1096 -36 c0 -13 -1 -22 -4 -19 -3 3 -11 0 -19 -7 -7 -6 -16 -8 -20 -4 -3 3
-1 6 6 6 7 0 9 5 6 10 -4 6 -1 9 7 8 8 -2 13 6 12 20 -1 12 1 20 4 17 4 -3 7
-17 8 -31z m60 9 c-8 -16 -12 -18 -14 -8 -2 8 -11 15 -20 16 -14 0 -13 2 3 8
35 14 43 10 31 -16z m28 5 c-7 -23 -6 -23 15 -4 11 11 21 16 21 13 0 -4 0 -10
0 -14 0 -5 -4 -9 -10 -9 -5 -1 -11 -2 -12 -4 -6 -4 -38 -8 -38 -4 0 6 24 44
28 44 2 0 0 -10 -4 -22z m-63 -31 c-10 -9 -11 -8 -5 6 3 10 9 15 12 12 3 -3 0
-11 -7 -18z m1909 -77 c0 -5 -4 -10 -10 -10 -5 0 -10 5 -10 10 0 6 5 10 10 10
6 0 10 -4 10 -10z m-4436 -176 c5 -113 4 -122 -14 -139 -24 -22 -39 -12 -22
15 14 23 0 27 -22 5 -20 -20 -46 -19 -46 3 0 9 4 34 9 54 5 20 6 40 3 43 -12
12 -10 39 5 69 20 41 65 88 74 79 3 -5 9 -62 13 -129z m2798 22 c49 -134 58
-177 58 -278 l0 -96 -38 5 c-23 3 -74 -3 -123 -15 -127 -31 -144 -31 -143 -5
0 12 -4 19 -9 16 -7 -4 -8 1 -3 13 4 10 4 15 1 12 -4 -4 -20 9 -36 27 -32 36
-73 157 -63 187 3 11 0 18 -7 18 -31 0 101 98 266 197 58 35 53 39 97 -81z
m-1947 -41 c-16 -14 -61 -41 -100 -62 -38 -20 -96 -56 -127 -80 -32 -24 -58
-40 -58 -34 0 11 101 85 160 119 19 10 58 33 85 50 61 37 81 40 40 7z m334
-57 l54 -63 -47 45 c-41 39 -74 80 -64 80 2 0 28 -28 57 -62z m36 -236 c88
-81 196 -175 240 -209 44 -33 88 -70 98 -81 18 -19 17 -20 -25 -26 -24 -3
-216 -9 -428 -12 -315 -5 -412 -3 -534 10 -82 9 -152 18 -154 21 -3 3 1 5 8 5
18 0 102 41 115 55 6 6 30 27 55 45 25 19 90 77 146 129 55 53 129 122 163
154 39 36 64 68 67 86 l6 30 42 -30 c22 -17 113 -96 201 -177z m930 179 c11
-10 27 -21 35 -23 9 -3 2 -8 -17 -12 -28 -7 -33 -13 -42 -57 -13 -61 -2 -121
47 -244 38 -95 103 -175 144 -175 26 0 60 -19 53 -30 -3 -5 -12 -7 -19 -4 -19
7 -79 -25 -73 -39 19 -51 18 -55 -25 -90 -57 -46 -120 -77 -157 -77 -20 0 -49
14 -84 40 l-54 41 -6 81 c-4 45 -5 84 -2 86 2 2 51 -21 109 -52 l105 -56 48
17 c26 10 49 18 51 19 2 1 -20 24 -48 50 -65 62 -119 94 -209 123 -71 23 -71
23 -71 60 0 20 14 74 31 121 37 105 45 140 30 140 -6 0 -11 5 -11 11 0 8 13 9
40 5 44 -7 90 1 90 15 0 5 -9 9 -19 9 -11 0 -27 3 -35 6 -14 6 -13 9 6 28 29
27 57 30 83 7z m-2205 -35 c0 -2 -7 -9 -15 -16 -12 -10 -15 -10 -15 4 0 9 7
16 15 16 8 0 15 -2 15 -4z m33 -26 c-4 -13 -17 -21 -42 -26 -20 -3 -52 -10
-71 -15 -30 -7 -33 -6 -17 5 9 8 36 16 58 20 23 4 48 13 56 21 19 20 22 19 16
-5z m14 -120 c9 -30 20 -61 26 -67 5 -7 7 -13 4 -13 -10 0 15 -64 32 -84 13
-16 13 -18 1 -11 -13 8 -13 7 -1 -8 7 -9 10 -17 6 -17 -4 0 0 -11 8 -24 14
-21 14 -26 1 -45 -8 -11 -11 -21 -5 -21 5 0 15 8 20 18 9 14 10 15 11 1 1 -47
-170 -120 -273 -118 l-32 0 30 14 c17 7 55 18 86 24 54 11 55 13 51 41 -7 48
-55 51 -141 9 -22 -10 -46 -19 -52 -19 -7 0 -10 -3 -6 -6 3 -3 21 -1 40 5 19
6 42 8 52 5 14 -6 8 -10 -26 -21 -65 -19 -102 -23 -90 -9 7 9 4 12 -12 13 -55
1 -58 3 -52 22 8 26 -32 52 -76 50 -19 -1 -81 14 -139 34 -93 31 -101 35 -65
36 28 1 59 13 105 41 l65 41 -45 -41 c-89 -81 10 -16 133 87 65 55 133 107
150 117 l32 17 -30 -23 c-40 -31 -144 -132 -125 -122 8 4 44 28 80 52 35 24
66 39 68 34 5 -17 55 -2 85 25 15 15 27 23 27 18 0 -5 8 2 17 15 17 23 18 24
21 5 1 -11 10 -45 19 -75z m3002 -16 c-73 -77 -165 -124 -439 -226 -74 -28
-142 -57 -151 -64 -8 -8 -20 -14 -25 -14 -12 0 -159 148 -153 154 2 3 38 -24
79 -59 41 -35 80 -64 87 -65 14 0 357 138 446 180 37 17 91 54 120 80 60 57
87 67 36 14z m-2789 -35 c-30 -26 -84 -62 -70 -46 11 12 95 77 100 76 3 0 -11
-13 -30 -30z m2330 -59 c0 -5 -2 -10 -4 -10 -3 0 -8 5 -11 10 -3 6 -1 10 4 10
6 0 11 -4 11 -10z m-3575 -120 c21 -22 37 -40 34 -40 -3 0 -23 18 -44 40 -21
22 -37 40 -34 40 3 0 23 -18 44 -40z m1122 25 c0 -8 -4 -12 -9 -9 -5 3 -6 10
-3 15 9 13 12 11 12 -6z m-1463 -50 c-8 -56 -50 -115 -116 -164 -36 -27 -43
-37 -34 -46 7 -7 31 -43 55 -81 24 -38 57 -88 72 -112 16 -23 29 -47 29 -52 0
-9 -125 -106 -183 -143 -15 -10 -32 -15 -37 -12 -6 3 -10 1 -10 -6 0 -31 -14
6 -15 39 -1 21 -5 44 -10 51 -5 10 -4 12 3 7 7 -4 12 -3 12 2 0 17 -13 22 -29
9 -14 -11 -14 -10 -2 6 7 9 10 17 5 17 -4 0 -3 5 4 12 9 9 7 17 -11 37 -12 13
-17 21 -10 17 20 -11 33 55 15 76 -11 13 -19 15 -27 8 -9 -7 -16 -5 -26 7 -13
16 -12 17 2 5 14 -10 18 -10 22 2 4 9 1 18 -5 22 -7 5 -8 2 -3 -6 5 -9 4 -11
-4 -6 -8 6 -9 11 -1 20 7 9 7 22 0 42 -5 16 -16 63 -23 104 l-12 75 40 -1 c40
-1 95 19 95 35 0 4 6 8 13 8 6 0 39 12 72 27 96 44 120 54 123 51 2 -2 0 -24
-4 -50z m5011 24 c17 -5 43 -10 58 -11 50 -4 72 -49 71 -145 0 -45 -5 -87 -11
-95 -25 -31 -25 -59 0 -91 44 -58 76 -122 72 -142 -2 -11 -4 -26 -4 -32 -1 -7
-5 -13 -11 -13 -5 0 -7 8 -4 18 5 14 4 14 -6 -2 -10 -15 -14 -16 -21 -5 -6 10
-9 8 -9 -8 0 -13 5 -21 13 -19 6 1 9 1 5 -1 -13 -7 -9 -23 5 -19 6 1 9 1 4 -1
-4 -3 -5 -9 -1 -14 3 -5 3 -9 -1 -9 -3 0 -14 15 -25 33 -11 17 -20 25 -20 17
0 -13 -1 -13 -10 0 -7 11 -10 11 -10 2 0 -7 -4 -11 -9 -7 -5 3 -12 1 -16 -5
-4 -6 -10 -8 -15 -5 -4 3 -2 -15 5 -40 9 -28 10 -47 4 -50 -5 -4 -8 -3 -7 2 1
4 -1 23 -5 40 -5 27 -11 32 -29 30 -24 -4 -35 -22 -19 -32 7 -4 9 1 5 12 -5
15 -4 16 5 3 9 -12 11 -13 11 -1 0 23 12 4 15 -24 2 -14 -1 -23 -5 -20 -5 3
-6 13 -3 23 5 14 4 15 -8 4 -11 -11 -11 -16 0 -35 13 -20 13 -21 -2 -8 -10 7
-17 10 -17 6 0 -4 -8 -1 -17 6 -15 12 -16 12 -9 -6 5 -15 4 -17 -4 -9 -9 9 -9
17 -1 32 8 15 7 21 -3 25 -16 6 -26 -1 -26 -17 0 -6 5 -4 11 4 7 10 9 11 7 2
-6 -23 -17 -15 -80 58 l-61 70 -2 118 c0 64 -5 161 -10 216 -7 87 -6 103 10
133 l19 34 65 -6 c36 -4 80 -11 96 -16z m462 -11 c-3 -7 -5 -2 -5 12 0 14 2
19 5 13 2 -7 2 -19 0 -25z m-4270 -180 c107 -54 158 -75 174 -71 12 4 39 23
61 45 45 45 50 38 7 -12 -41 -48 -17 -51 34 -4 l41 39 -32 -41 c-44 -57 -99
-109 -137 -130 -33 -17 -34 -17 -68 9 -53 40 -247 228 -247 239 0 5 3 8 8 6 4
-1 75 -38 159 -80z m313 48 c0 -2 -7 -9 -15 -16 -13 -11 -14 -10 -9 4 5 14 24
23 24 12z m4227 -68 c-3 -7 -5 -2 -5 12 0 14 2 19 5 13 2 -7 2 -19 0 -25z
m-2402 -78 c3 -5 2 -10 -4 -10 -5 0 -13 5 -16 10 -3 6 -2 10 4 10 5 0 13 -4
16 -10z m-1916 -69 c-14 -5 -36 -14 -50 -20 l-24 -12 25 20 c14 11 36 20 50
20 l25 -1 -26 -7z m326 -33 c180 -58 201 -89 191 -273 -6 -128 -16 -181 -44
-245 l-17 -40 -85 6 c-47 4 -93 10 -102 15 -9 5 -26 9 -37 9 -20 0 -25 9 -22
37 1 7 -32 30 -74 50 l-76 38 -51 103 -50 104 22 23 c13 13 29 52 37 87 21 92
34 116 63 121 53 8 159 -6 245 -35z m1579 18 c31 -20 46 -88 46 -208 0 -107
-19 -157 -78 -209 -49 -43 -265 -145 -322 -152 l-45 -5 -28 71 c-34 90 -51
192 -45 279 3 37 2 70 -2 75 -4 4 -17 26 -30 48 -23 39 -23 40 -1 18 12 -13
23 -23 25 -23 2 0 39 18 84 39 68 34 153 64 237 85 37 9 135 -2 159 -18z
m-3591 -27 c-9 -32 -18 -29 -18 6 -1 25 3 31 11 24 7 -5 10 -19 7 -30z m3822
-59 c10 -11 16 -20 13 -20 -3 0 -13 9 -23 20 -10 11 -16 20 -13 20 3 0 13 -9
23 -20z m1795 -6 c0 -2 -14 -4 -31 -4 -16 0 -28 4 -25 9 5 8 56 3 56 -5z m220
-4 c0 -5 -2 -10 -4 -10 -3 0 -8 5 -11 10 -3 6 -1 10 4 10 6 0 11 -4 11 -10z
m60 0 c0 -5 -4 -10 -10 -10 -5 0 -10 5 -10 10 0 6 5 10 10 10 6 0 10 -4 10
-10z m-4425 -10 c-3 -5 -12 -10 -18 -10 -7 0 -6 4 3 10 19 12 23 12 15 0z
m2425 -37 c0 -7 -39 17 -46 28 -3 6 5 3 20 -6 14 -10 26 -19 26 -22z m1109
-67 c27 -39 48 -80 57 -111 13 -45 42 -104 48 -98 5 5 4 -2 -2 -13 -6 -12 -9
-24 -6 -26 2 -3 -15 -12 -38 -21 -89 -34 -297 -70 -285 -49 4 5 0 15 -8 22 -8
7 -12 17 -8 23 3 6 1 7 -5 3 -27 -17 -97 117 -87 167 4 18 7 40 8 49 1 13 4
14 14 6 11 -8 12 -7 7 7 -6 14 -4 16 6 10 7 -5 11 -4 8 1 -7 10 17 36 25 27 3
-3 -1 -17 -10 -32 l-15 -26 20 25 c11 14 20 30 21 35 1 13 -20 14 -36 2 -7 -5
-13 -6 -13 -2 0 4 -6 2 -13 -4 -8 -6 -16 -9 -18 -6 -3 2 -6 -8 -7 -22 -1 -15
-5 -29 -8 -32 -3 -3 -4 14 -2 39 l3 45 100 11 c55 6 126 12 157 13 57 1 57 1
87 -43z m383 25 c4 -1 4 -8 1 -18 -4 -10 -2 -14 5 -9 6 3 13 2 16 -3 4 -5 -1
-8 -11 -7 -9 2 -20 11 -25 22 -7 15 -8 13 -5 -8 3 -17 0 -25 -6 -21 -6 4 -8 0
-4 -11 4 -10 3 -15 -3 -11 -5 3 -7 20 -4 38 4 24 3 28 -5 17 -6 -8 -11 -10
-11 -4 0 16 9 22 28 19 9 -2 20 -4 24 -4z m388 -91 c0 -5 -2 -10 -4 -10 -3 0
-8 5 -11 10 -3 6 -1 10 4 10 6 0 11 -4 11 -10z m-1435 -190 c33 -33 57 -60 54
-60 -2 0 -31 27 -64 60 -33 33 -57 60 -54 60 2 0 31 -27 64 -60z m1510 50 c-3
-5 -10 -10 -16 -10 -5 0 -9 5 -9 10 0 6 7 10 16 10 8 0 12 -4 9 -10z m-3662
-105 c-3 -9 -8 -14 -10 -11 -3 3 -2 9 2 15 9 16 15 13 8 -4z m-1806 -37 c-3
-8 -6 -5 -6 6 -1 11 2 17 5 13 3 -3 4 -12 1 -19z m1806 -15 c-7 -2 -19 -2 -25
0 -7 3 -2 5 12 5 14 0 19 -2 13 -5z m3544 -70 c-3 -10 -5 -2 -5 17 0 19 2 27
5 18 2 -10 2 -26 0 -35z m-434 -264 c20 -1 20 -2 -3 -8 -25 -8 -65 -1 -42 7 7
2 13 13 13 25 2 22 2 22 6 0 3 -15 12 -23 26 -24z m-548 -89 c3 -5 -1 -10 -9
-10 -9 0 -16 5 -16 10 0 6 4 10 9 10 6 0 13 -4 16 -10z m-3985 -15 c0 -10 -11
-15 -35 -15 -24 0 -35 5 -35 15 0 10 11 15 35 15 24 0 35 -5 35 -15z m104 9
c31 -12 15 -21 -39 -23 -44 -2 -55 1 -55 13 0 12 10 16 39 16 22 0 46 -3 55
-6z m2923 -10 c-3 -3 -12 -4 -19 -1 -8 3 -5 6 6 6 11 1 17 -2 13 -5z m-447
-16 c0 -4 -12 -8 -26 -8 -14 0 -23 4 -20 8 2 4 14 8 25 8 12 0 21 -4 21 -8z
m-93 -4 c-3 -3 -12 -4 -19 -1 -8 3 -5 6 6 6 11 1 17 -2 13 -5z"/>
<path d="M6010 7293 c-87 -73 -238 -219 -205 -199 17 10 49 34 73 54 24 19 45
32 48 29 3 -3 8 -24 11 -48 l6 -42 18 34 c22 42 23 53 4 45 -23 -9 -18 7 18
55 80 106 89 119 86 118 -2 0 -29 -21 -59 -46z"/>
<path d="M4499 7112 c208 -209 292 -282 325 -282 21 0 21 2 -12 91 -54 144
-149 248 -277 302 -44 19 -97 36 -117 40 -21 3 -57 19 -82 36 -25 17 -46 31
-48 31 -3 0 93 -98 211 -218z"/>
<path d="M3920 7104 c0 -9 16 -52 36 -96 41 -91 40 -104 -22 -192 l-35 -51 36
38 c19 20 39 37 44 37 4 0 16 -21 26 -47 10 -27 21 -52 25 -56 4 -5 22 21 40
58 18 36 37 64 44 62 11 -4 38 -41 69 -97 32 -60 29 -23 -5 57 -58 133 -148
257 -209 289 -36 18 -49 18 -49 -2z"/>
<path d="M6294 7081 c-46 -28 -84 -82 -84 -120 0 -48 25 -88 114 -180 45 -46
72 -79 61 -73 -48 25 -215 222 -215 253 0 21 -50 -33 -81 -87 -30 -53 -37 -98
-18 -124 8 -12 9 -10 4 7 -8 30 26 63 65 63 21 0 69 -25 152 -77 67 -43 122
-76 122 -74 1 2 26 -11 56 -29 142 -83 145 -83 26 2 -36 27 -66 52 -66 57 0
16 107 146 142 173 18 14 44 29 58 33 14 4 33 14 42 22 9 8 27 14 40 12 28 -2
60 10 53 21 -9 15 -116 71 -125 65 -5 -3 -12 1 -17 8 -12 21 -67 36 -167 47
-50 6 -99 13 -111 16 -11 2 -34 -4 -51 -15z m170 -306 c-4 -8 -11 -15 -16 -15
-6 0 -5 6 2 15 7 8 14 15 16 15 2 0 1 -7 -2 -15z"/>
<path d="M5884 7034 c-5 -25 -11 -34 -21 -30 -8 3 -24 6 -35 6 -15 0 -19 4
-14 18 4 9 -12 -5 -35 -33 -23 -27 -72 -79 -108 -114 l-66 -64 63 49 c35 27
74 54 85 61 31 17 35 -3 7 -32 -18 -20 -22 -31 -17 -61 4 -21 13 -44 21 -52
12 -13 17 -7 32 43 13 39 26 61 41 68 13 6 23 16 23 23 0 7 7 19 15 28 17 17
54 94 55 114 0 6 -9 12 -20 12 -14 0 -21 -9 -26 -36z"/>
<path d="M6790 7047 c0 -3 30 -27 68 -55 37 -28 88 -71 114 -96 52 -51 89 -64
42 -15 -58 63 -224 185 -224 166z"/>
<path d="M5400 6795 c-8 -9 -8 -15 -2 -15 12 0 26 19 19 26 -2 2 -10 -2 -17
-11z"/>
<path d="M5500 6795 c0 -8 5 -15 10 -15 6 0 10 7 10 15 0 8 -4 15 -10 15 -5 0
-10 -7 -10 -15z"/>
<path d="M3844 6708 l-19 -23 23 19 c21 18 27 26 19 26 -2 0 -12 -10 -23 -22z"/>
<path d="M5650 6710 c0 -5 5 -10 11 -10 5 0 7 5 4 10 -3 6 -8 10 -11 10 -2 0
-4 -4 -4 -10z"/>
<path d="M6045 6705 c-16 -8 -69 -28 -117 -46 -74 -27 -91 -37 -108 -66 -36
-61 -27 -114 59 -333 27 -69 62 -159 77 -200 36 -97 59 -131 111 -165 23 -14
59 -45 79 -68 l37 -42 -29 40 c-15 22 -32 43 -37 46 -5 4 -5 8 1 10 6 2 0 30
-15 67 -14 35 -23 65 -20 69 3 3 20 0 38 -6 18 -6 45 -11 61 -11 26 0 28 3 22
22 -7 22 -6 22 21 4 29 -19 27 -13 -8 36 -21 28 -16 48 11 48 16 1 16 1 -1 11
-14 8 -15 14 -6 31 8 15 8 19 0 14 -21 -13 -11 5 17 30 15 14 20 22 12 18 -8
-5 -22 -9 -30 -11 -8 -1 -24 -13 -35 -26 -17 -21 -73 -57 -88 -57 -3 0 -4 61
-3 136 1 121 4 138 21 150 16 12 17 14 2 14 -20 0 -23 16 -4 23 9 4 8 8 -3 16
-13 9 -12 11 6 11 38 0 54 31 60 116 4 47 2 90 -5 107 -9 24 -16 27 -53 26
-24 0 -56 -7 -73 -14z"/>
<path d="M4026 6644 c9 -70 25 -92 18 -24 -3 30 -10 59 -15 64 -5 5 -6 -11 -3
-40z"/>
<path d="M6236 6678 c3 -5 10 -6 15 -3 13 9 11 12 -6 12 -8 0 -12 -4 -9 -9z"/>
<path d="M6266 6671 c-3 -5 2 -15 12 -22 15 -12 16 -12 5 2 -7 9 -10 19 -6 22
3 4 4 7 0 7 -3 0 -8 -4 -11 -9z"/>
<path d="M6418 6629 c12 -14 19 -29 15 -32 -3 -4 -1 -7 5 -7 7 0 22 -20 34
-45 12 -25 26 -45 31 -45 4 0 6 -4 3 -8 -2 -4 -1 -14 5 -22 7 -12 9 -10 9 7 0
35 -36 95 -82 138 -24 22 -33 28 -20 14z"/>
<path d="M3970 6616 c0 -2 8 -10 18 -17 15 -13 16 -12 3 4 -13 16 -21 21 -21
13z"/>
<path d="M6310 6586 c0 -2 8 -10 18 -17 15 -13 16 -12 3 4 -13 16 -21 21 -21
13z"/>
<path d="M6940 6531 c0 -10 -12 -40 -26 -67 l-25 -49 27 27 c18 18 28 40 31
67 2 23 2 41 -1 41 -4 0 -6 -8 -6 -19z"/>
<path d="M4015 6406 c-39 -11 -39 -28 0 -19 11 3 28 5 37 6 10 1 20 7 22 14 6
16 -6 15 -59 -1z"/>
<path d="M3863 6353 c-45 -15 -48 -19 -34 -42 11 -16 114 -17 119 -1 2 6 9 7
15 3 7 -3 3 3 -7 15 -11 12 -29 22 -40 22 -17 0 -18 2 -6 10 21 14 2 11 -47
-7z"/>
<path d="M6730 6182 c0 -7 -4 -10 -10 -7 -5 3 -3 -11 6 -32 13 -35 13 -36 -1
-18 -9 11 -18 19 -20 18 -13 -7 -25 -2 -19 8 4 8 9 7 15 -2 5 -8 9 -9 9 -3 0
22 -14 23 -37 2 -13 -12 -23 -18 -23 -15 0 4 -11 -3 -25 -15 -13 -11 -21 -26
-18 -32 3 -6 3 -8 -2 -4 -13 12 -63 -30 -105 -88 -34 -45 -40 -61 -40 -102 0
-27 -9 -91 -20 -143 -11 -52 -20 -113 -20 -136 0 -24 -2 -43 -5 -43 -2 0 -33
17 -68 39 l-63 38 1 -32 c1 -22 23 -61 76 -134 117 -162 131 -182 189 -271 46
-71 56 -81 65 -65 94 158 218 328 292 401 84 82 85 84 61 93 -14 5 -45 12 -69
16 -36 5 -48 3 -59 -10 -11 -14 -11 -18 -1 -25 21 -12 -18 -32 -173 -90 -76
-28 -161 -62 -190 -76 -28 -15 -46 -22 -41 -16 19 19 150 81 199 94 52 14 112
60 101 78 -3 6 -12 8 -18 4 -7 -3 -4 1 6 9 18 15 18 16 -3 37 -15 15 -18 25
-11 33 6 8 5 18 -4 30 -7 10 -15 14 -17 10 -3 -4 -3 -2 -1 5 1 7 -8 35 -22 62
-26 51 -32 90 -15 90 6 0 10 6 10 14 0 7 16 48 35 91 19 42 33 81 29 86 -8 13
-26 0 -21 -15 3 -6 -4 -22 -14 -35 -11 -13 -19 -18 -19 -12 0 7 -5 9 -12 5 -6
-4 -8 -3 -4 4 3 6 1 12 -6 15 -7 2 -5 3 5 2 20 -4 23 11 5 18 -10 4 -10 6 0 6
8 1 10 6 6 14 -4 7 -3 9 2 4 9 -8 10 -12 13 -39 2 -21 15 2 17 30 2 44 4 48
15 30 14 -25 24 -22 37 8 10 20 9 31 -3 52 -8 15 -14 21 -15 14z m14 -28 c3
-8 2 -12 -4 -9 -6 3 -10 10 -10 16 0 14 7 11 14 -7z m-203 -521 c-12 -20 -14
-14 -5 12 4 9 9 14 11 11 3 -2 0 -13 -6 -23z m219 -158 c26 -13 42 -45 24 -45
-12 0 -64 42 -64 51 0 12 6 11 40 -6z"/>
<path d="M6756 6177 c3 -10 9 -15 12 -12 3 3 0 11 -7 18 -10 9 -11 8 -5 -6z"/>
<path d="M6490 6099 c-55 -68 -81 -119 -46 -90 21 17 110 150 105 155 -2 2
-29 -27 -59 -65z"/>
<path d="M5022 6070 c0 -14 2 -19 5 -12 2 6 2 18 0 25 -3 6 -5 1 -5 -13z"/>
<path d="M5011 6024 c0 -11 3 -14 6 -6 3 7 2 16 -1 19 -3 4 -6 -2 -5 -13z"/>
<path d="M6431 5951 c0 -16 3 -20 6 -11 3 8 10 20 14 26 5 7 3 11 -6 11 -10 0
-15 -10 -14 -26z"/>
<path d="M4991 5944 c0 -11 3 -14 6 -6 3 7 2 16 -1 19 -3 4 -6 -2 -5 -13z"/>
<path d="M7443 5928 c-15 -20 -25 -38 -20 -38 3 0 12 11 21 25 17 26 16 35 -1
13z"/>
<path d="M4382 5876 c13 -20 27 -36 31 -36 9 0 -28 56 -44 66 -6 3 0 -10 13
-30z"/>
<path d="M6755 5640 c-3 -5 -1 -10 4 -10 6 0 11 5 11 10 0 6 -2 10 -4 10 -3 0
-8 -4 -11 -10z"/>
<path d="M7323 5595 c0 -22 2 -30 4 -17 2 12 2 30 0 40 -3 9 -5 -1 -4 -23z"/>
<path d="M3513 5499 c-2 -26 25 -71 38 -63 17 10 10 63 -10 74 -26 13 -26 13
-28 -11z"/>
<path d="M3486 5402 c-3 -6 -1 -14 5 -17 15 -10 25 3 12 16 -7 7 -13 7 -17 1z"/>
<path d="M3537 5369 c-31 -16 -36 -23 -28 -38 6 -10 17 -24 26 -31 9 -7 23
-26 31 -42 8 -15 19 -28 24 -28 12 0 2 29 -19 54 -15 18 -15 19 0 13 17 -6 59
25 59 44 0 10 -40 48 -50 48 -3 0 -22 -9 -43 -20z"/>
<path d="M6661 5011 c11 -15 66 -70 122 -121 l102 -93 -120 121 c-66 67 -121
122 -123 122 -1 0 7 -13 19 -29z"/>
<path d="M6536 5014 c-5 -14 -4 -15 9 -4 17 14 19 20 6 20 -5 0 -12 -7 -15
-16z"/>
<path d="M3625 4890 c-4 -6 -13 -9 -21 -6 -14 5 -94 -77 -176 -182 -38 -47
-45 -61 -32 -66 8 -3 13 -2 10 3 -3 5 1 12 10 15 12 4 15 2 10 -9 -3 -8 -1
-15 4 -15 6 0 10 6 10 13 0 9 2 9 8 -1 7 -10 12 -8 24 5 24 28 33 47 19 38 -8
-4 -6 4 4 18 9 15 14 31 10 36 -4 7 1 8 12 4 17 -6 17 -5 1 14 -17 19 -17 20
10 46 20 19 31 24 39 16 13 -13 46 28 36 44 -3 6 -1 7 4 4 12 -7 39 20 30 29
-3 3 -8 0 -12 -6z m-35 -50 c0 -5 -5 -10 -11 -10 -5 0 -7 5 -4 10 3 6 8 10 11
10 2 0 4 -4 4 -10z"/>
<path d="M3526 4768 c3 -5 10 -6 15 -3 13 9 11 12 -6 12 -8 0 -12 -4 -9 -9z"/>
<path d="M3733 4178 c1 -20 5 -34 10 -31 10 6 9 35 -3 53 -6 10 -8 4 -7 -22z"/>
<path d="M4086 4074 c-4 -9 -4 -19 -1 -22 2 -3 7 3 11 12 4 9 4 19 1 22 -2 3
-7 -3 -11 -12z"/>
<path d="M3510 3861 c0 -5 5 -13 10 -16 6 -3 10 -2 10 4 0 5 -4 13 -10 16 -5
3 -10 2 -10 -4z"/>
<path d="M3446 3805 c4 -8 11 -15 16 -15 6 0 5 6 -2 15 -7 8 -14 15 -16 15 -2
0 -1 -7 2 -15z"/>
<path d="M3480 3785 c0 -2 10 -10 23 -16 20 -11 21 -11 8 4 -13 16 -31 23 -31
12z"/>
<path d="M2203 5412 c0 -12 5 -22 9 -22 11 0 10 12 -2 30 -7 12 -9 10 -7 -8z"/>
<path d="M6226 4007 c3 -10 9 -15 12 -12 3 3 0 11 -7 18 -10 9 -11 8 -5 -6z"/>
<path d="M6116 3381 c-7 -9 -11 -22 -8 -30 2 -8 0 -11 -6 -7 -6 3 -14 2 -17
-4 -4 -6 -1 -9 6 -8 20 4 28 -62 12 -97 -12 -26 -12 -28 0 -13 8 10 16 15 20
12 3 -3 4 8 3 25 -1 21 5 38 20 52 l22 21 -2 -26 c-4 -31 -16 -48 -16 -22 0
10 -5 14 -11 10 -7 -4 -7 -10 -1 -16 6 -6 8 -18 5 -27 -3 -9 3 -4 14 11 17 25
20 26 31 10 7 -9 5 -2 -3 15 -9 18 -16 36 -18 40 -1 5 -4 7 -7 6 -3 -1 -5 13
-4 31 2 36 -16 44 -40 17z m34 -14 c0 -7 -4 -6 -10 3 -8 13 -10 13 -10 -2 0
-9 5 -18 10 -20 6 -2 4 -11 -5 -23 -9 -11 -14 -14 -10 -8 3 7 1 21 -4 31 -7
13 -7 22 1 30 13 13 28 7 28 -11z"/>
<path d="M6087 3303 c5 -12 3 -14 -8 -8 -8 5 -6 0 4 -12 11 -12 14 -24 9 -27
-6 -3 -12 -1 -14 6 -3 7 -7 5 -11 -6 -4 -10 -3 -15 3 -11 6 3 10 1 10 -6 0 -7
6 -4 14 6 8 11 11 24 8 30 -4 5 -5 18 -4 28 2 9 -1 17 -7 17 -6 0 -7 -7 -4
-17z"/>
<path d="M2484 2768 c3 -10 1 -18 -5 -18 -6 0 -7 -4 -4 -10 3 -5 1 -10 -6 -10
-8 0 -6 -7 5 -19 12 -13 14 -21 6 -26 -8 -5 -7 -12 3 -23 9 -11 13 -35 12 -63
-1 -38 1 -46 14 -44 9 1 15 10 13 20 -2 12 1 15 10 9 10 -6 11 -5 1 7 -10 12
-9 20 4 39 9 13 11 20 5 16 -14 -8 -39 40 -36 71 1 13 -3 20 -9 16 -6 -4 -8 0
-5 9 4 8 2 21 -4 29 -8 11 -9 10 -4 -3z m16 -59 c0 -6 -4 -7 -10 -4 -5 3 -10
11 -10 16 0 6 5 7 10 4 6 -3 10 -11 10 -16z m20 -79 c-4 -3 -6 -13 -4 -22 1
-10 -2 -18 -7 -18 -5 0 -7 13 -4 29 3 19 0 35 -10 44 -8 8 -11 17 -8 21 4 3
14 -6 23 -22 9 -15 14 -29 10 -32z"/>
<path d="M7565 3170 c-2 -4 17 -12 44 -19 26 -6 60 -19 76 -27 28 -14 31 -14
47 6 24 30 23 37 -8 43 -18 3 -22 1 -15 -6 17 -17 13 -27 -10 -27 -16 0 -19 4
-14 23 7 20 6 21 -7 4 -12 -16 -18 -17 -43 -6 -36 14 -64 18 -70 9z"/>
<path d="M7650 3170 c0 -5 5 -10 10 -10 6 0 10 5 10 10 0 6 -4 10 -10 10 -5 0
-10 -4 -10 -10z"/>
<path d="M7720 2561 c0 -6 5 -13 10 -16 6 -3 10 1 10 9 0 9 -4 16 -10 16 -5 0
-10 -4 -10 -9z"/>
<path d="M7181 2513 c-12 -16 -19 -22 -15 -14 5 10 3 12 -6 6 -9 -5 -11 -4 -6
4 4 6 12 9 17 6 5 -4 9 -1 9 4 0 9 -29 17 -30 9 -4 -24 -6 -68 -3 -55 3 9 9
15 14 11 5 -3 7 -9 4 -14 -3 -4 2 -24 10 -43 8 -19 11 -38 7 -42 -4 -5 -2 -5
5 -1 9 5 9 16 -2 46 -8 22 -10 42 -5 45 4 3 11 -1 14 -7 2 -7 3 -2 2 12 -2 14
1 33 6 43 13 25 5 21 -21 -10z"/>
<path d="M7214 2495 c0 -13 3 -22 7 -19 8 4 6 30 -2 38 -3 3 -5 -5 -5 -19z"/>
<path d="M7220 2460 c-9 -6 -10 -10 -3 -10 6 0 15 5 18 10 8 12 4 12 -15 0z"/>
<path d="M7240 2446 c0 -2 8 -10 18 -17 15 -13 16 -12 3 4 -13 16 -21 21 -21
13z"/>
<path d="M7233 2412 c2 -12 6 -24 10 -28 3 -4 4 4 2 16 -6 30 -16 40 -12 12z"/>
<path d="M7205 2410 c3 -5 8 -10 11 -10 2 0 4 5 4 10 0 6 -5 10 -11 10 -5 0
-7 -4 -4 -10z"/>
<path d="M7216 2377 c5 -14 2 -16 -12 -11 -16 5 -16 4 -4 -5 20 -14 39 4 21
22 -10 10 -11 9 -5 -6z"/>
<path d="M7248 2338 c-7 -17 15 -19 29 -3 4 4 3 5 -4 2 -6 -4 -13 -2 -15 5 -3
8 -6 6 -10 -4z"/>
<path d="M4626 8043 c7 -21 13 -45 14 -54 0 -8 6 -24 14 -35 14 -18 15 -18 45
10 17 17 31 35 31 42 0 6 7 14 15 18 8 3 15 12 15 21 0 18 -16 20 -24 3 -3 -7
-4 -4 -3 7 2 18 -5 20 -59 23 l-62 3 14 -38z"/>
<path d="M5106 8051 c-3 -5 -9 -61 -12 -125 l-7 -116 34 0 c22 0 41 7 52 20
16 19 16 24 3 53 -8 18 -18 51 -21 74 -4 24 -11 45 -16 49 -5 3 -9 14 -9 24 0
21 -16 35 -24 21z"/>
<path d="M7608 7493 c6 -2 18 -2 25 0 6 3 1 5 -13 5 -14 0 -19 -2 -12 -5z"/>
<path d="M7661 7486 c2 -2 18 -6 34 -10 22 -5 26 -4 15 4 -14 9 -59 15 -49 6z"/>
<path d="M7755 7460 c27 -12 43 -12 25 0 -8 5 -22 9 -30 9 -10 0 -8 -3 5 -9z"/>
<path d="M7815 7440 c27 -12 43 -12 25 0 -8 5 -22 9 -30 9 -10 0 -8 -3 5 -9z"/>
<path d="M8236 6863 c-6 -14 -5 -15 5 -6 7 7 10 15 7 18 -3 3 -9 -2 -12 -12z"/>
<path d="M8307 6703 c-12 -11 -8 -41 6 -46 10 -4 12 3 9 24 -5 31 -5 32 -15
22z"/>
<path d="M8210 6611 c0 -37 12 -51 41 -51 21 0 32 6 39 23 7 17 9 18 9 5 1
-15 10 -18 51 -18 49 0 50 1 50 30 l0 30 -95 0 c-87 0 -95 -2 -95 -19z"/>
<path d="M8218 6533 c-2 -10 -2 -30 0 -45 l4 -28 89 0 89 0 0 45 0 45 -89 0
c-77 0 -90 -2 -93 -17z m84 -28 c3 -13 1 -22 -3 -19 -9 5 -13 44 -5 44 2 0 6
-11 8 -25z"/>
<path d="M8420 6540 c0 -5 5 -10 10 -10 6 0 10 5 10 10 0 6 -4 10 -10 10 -5 0
-10 -4 -10 -10z"/>
<path d="M8420 6468 c0 -4 16 -8 35 -8 19 0 35 3 35 8 0 4 -16 7 -35 7 -19 0
-35 -3 -35 -7z"/>
<path d="M8410 6400 l0 -40 40 0 c33 0 40 3 40 20 0 18 -10 25 -32 21 -5 0 -8
4 -8 10 0 6 9 8 20 4 14 -5 20 -2 20 9 0 12 -10 16 -40 16 l-40 0 0 -40z"/>
<path d="M8510 6431 c0 -5 16 -9 35 -8 19 1 35 5 35 9 0 4 -16 8 -35 8 -19 0
-35 -4 -35 -9z"/>
<path d="M8620 6429 c0 -5 5 -7 10 -4 6 3 10 8 10 11 0 2 -4 4 -10 4 -5 0 -10
-5 -10 -11z"/>
<path d="M8510 6370 c0 -5 5 -10 10 -10 6 0 10 5 10 10 0 6 -4 10 -10 10 -5 0
-10 -4 -10 -10z"/>
<path d="M8165 6310 c3 -5 8 -10 11 -10 2 0 4 5 4 10 0 6 -5 10 -11 10 -5 0
-7 -4 -4 -10z"/>
<path d="M8086 6303 c5 -5 12 -12 15 -16 3 -5 9 -2 12 7 5 12 0 16 -15 16 -12
0 -17 -3 -12 -7z"/>
<path d="M8043 6225 c0 -8 4 -12 9 -9 5 3 6 10 3 15 -9 13 -12 11 -12 -6z"/>
<path d="M8500 6180 l0 -40 46 0 c40 0 45 2 34 15 -7 8 -16 12 -21 9 -5 -3 -9
7 -9 23 1 26 2 26 14 10 12 -16 14 -16 20 -1 9 24 9 24 -39 24 l-45 0 0 -40z"/>
<path d="M8618 6213 c7 -3 16 -2 19 1 4 3 -2 6 -13 5 -11 0 -14 -3 -6 -6z"/>
<path d="M8612 6099 c2 -6 8 -10 13 -10 5 0 11 4 13 10 2 6 -4 11 -13 11 -9 0
-15 -5 -13 -11z"/>
<path d="M8176 5775 c-3 -9 -4 -21 -1 -26 4 -5 -1 -6 -9 -3 -11 4 -16 0 -16
-10 0 -9 -6 -16 -12 -16 -7 0 -5 -5 5 -11 24 -14 64 21 62 53 -2 27 -20 35
-29 13z"/>
<path d="M8620 5670 c0 -5 5 -10 10 -10 6 0 10 5 10 10 0 6 -4 10 -10 10 -5 0
-10 -4 -10 -10z"/>
<path d="M2021 5574 c0 -11 3 -14 6 -6 3 7 2 16 -1 19 -3 4 -6 -2 -5 -13z"/>
<path d="M8620 5510 c0 -5 5 -10 10 -10 6 0 10 5 10 10 0 6 -4 10 -10 10 -5 0
-10 -4 -10 -10z"/>
<path d="M2022 5450 c0 -25 2 -36 5 -25 8 31 22 42 34 25 9 -13 10 -13 6 0 -2
8 -10 15 -18 15 -8 0 -17 7 -21 15 -4 8 -6 -5 -6 -30z"/>
<path d="M2128 5452 c4 -10 7 -12 10 -4 2 7 9 9 15 5 7 -3 8 -2 4 2 -14 16
-36 14 -29 -3z"/>
<path d="M2085 5449 c-4 -6 -5 -12 -2 -15 2 -3 7 2 10 11 7 17 1 20 -8 4z"/>
<path d="M8043 5415 c0 -8 4 -12 9 -9 5 3 6 10 3 15 -9 13 -12 11 -12 -6z"/>
<path d="M8610 5380 c0 -13 6 -20 18 -19 11 0 12 2 4 6 -10 4 -10 8 -1 19 9
11 8 14 -5 14 -9 0 -16 -8 -16 -20z"/>
<path d="M2077 5359 c4 -13 8 -18 11 -10 2 7 -1 18 -6 23 -8 8 -9 4 -5 -13z"/>
<path d="M2055 5350 c3 -5 8 -10 11 -10 2 0 4 5 4 10 0 6 -5 10 -11 10 -5 0
-7 -4 -4 -10z"/>
<path d="M2210 5349 c0 -5 5 -7 10 -4 6 3 10 8 10 11 0 2 -4 4 -10 4 -5 0 -10
-5 -10 -11z"/>
<path d="M8510 5300 c0 -33 3 -40 19 -40 11 0 22 8 24 18 4 16 5 16 6 0 0 -10
8 -18 16 -18 11 0 15 11 15 40 0 28 -4 40 -14 40 -8 0 -17 -6 -19 -12 -4 -10
-6 -10 -6 0 -1 6 -10 12 -21 12 -17 0 -20 -7 -20 -40z"/>
<path d="M8125 5269 c3 -12 11 -29 18 -37 12 -11 15 -11 20 2 4 10 1 13 -9 9
-7 -3 -15 0 -15 6 -3 26 -4 30 -11 37 -4 3 -5 -4 -3 -17z"/>
<path d="M8511 5170 l0 -70 37 0 37 0 3 70 3 70 -40 0 -40 0 0 -70z"/>
<path d="M8618 4713 c7 -3 16 -2 19 1 4 3 -2 6 -13 5 -11 0 -14 -3 -6 -6z"/>
<path d="M8520 4581 c0 -53 4 -56 48 -45 16 5 22 14 22 33 0 35 -10 48 -43 56
-27 7 -27 7 -27 -44z"/>
<path d="M8601 4554 c0 -11 3 -14 6 -6 3 7 2 16 -1 19 -3 4 -6 -2 -5 -13z"/>
<path d="M8600 4391 c0 -17 6 -21 29 -21 17 0 33 5 36 11 9 13 6 15 -32 24
-29 6 -33 4 -33 -14z"/>
<path d="M8600 4335 c0 -10 11 -15 35 -15 24 0 35 5 35 15 0 10 -11 15 -35 15
-24 0 -35 -5 -35 -15z"/>
<path d="M8600 4284 c0 -11 8 -14 32 -12 46 4 49 28 4 28 -26 0 -36 -4 -36
-16z"/>
<path d="M8600 4160 c0 -6 7 -10 15 -10 8 0 15 2 15 4 0 2 -7 6 -15 10 -8 3
-15 1 -15 -4z"/>
<path d="M8500 4121 c0 -18 6 -21 40 -21 29 0 40 4 40 15 0 9 -9 15 -24 15
-13 0 -31 3 -40 6 -12 4 -16 0 -16 -15z"/>
<path d="M8618 4113 c12 -2 30 -2 40 0 9 3 -1 5 -23 4 -22 0 -30 -2 -17 -4z"/>
<path d="M8580 3850 c0 -7 14 -8 38 -4 51 9 53 14 4 14 -23 0 -42 -5 -42 -10z"/>
<path d="M8570 3753 c0 -8 14 -13 40 -13 22 0 40 4 40 9 0 5 -18 11 -40 13
-28 2 -40 0 -40 -9z"/>
<path d="M8570 3683 c0 -31 2 -33 35 -33 43 0 48 25 8 35 -15 3 -31 12 -35 18
-4 7 -8 -2 -8 -20z"/>
<path d="M8570 3555 c0 -8 9 -15 19 -15 26 0 35 16 15 24 -25 10 -34 7 -34 -9z"/>
<path d="M8570 3495 c0 -8 9 -15 20 -15 13 0 18 5 14 15 -4 8 -12 15 -20 15
-8 0 -14 -7 -14 -15z"/>
<path d="M8580 3360 c0 -5 7 -7 15 -4 8 4 15 8 15 10 0 2 -7 4 -15 4 -8 0 -15
-4 -15 -10z"/>
<path d="M8460 2790 l0 -69 35 1 c35 1 45 11 25 23 -7 4 -8 11 -2 18 6 7 12
31 14 55 l4 42 -38 0 -38 0 0 -70z"/>
<path d="M8403 2628 c4 -40 7 -76 7 -80 0 -5 9 -8 20 -8 18 0 20 7 20 80 0 80
0 80 -26 80 l-27 0 6 -72z"/>
<path d="M8460 2620 c0 -44 3 -80 8 -80 4 0 7 23 7 50 0 27 3 50 8 50 4 0 7 5
7 11 0 5 -4 7 -10 4 -7 -4 -7 3 0 19 7 21 6 26 -5 26 -12 0 -15 -16 -15 -80z"/>
<path d="M2937 2616 c-3 -8 2 -20 11 -27 14 -11 15 -11 5 0 -6 7 -9 20 -6 27
3 8 3 14 0 14 -3 0 -7 -6 -10 -14z"/>
<path d="M3006 2583 c-3 -4 -6 -11 -6 -17 0 -6 5 -4 10 4 8 13 10 12 10 -2 0
-10 4 -18 10 -18 5 0 7 8 3 18 -5 15 -4 14 9 -2 10 -12 17 -15 22 -8 10 16
-43 39 -58 25z"/>
<path d="M2996 2534 c-5 -14 -9 -14 -24 -3 -15 13 -16 12 -3 -4 13 -16 16 -16
30 -3 8 9 12 18 9 21 -3 3 -8 -2 -12 -11z"/>
<path d="M3052 2532 c10 -12 10 -14 1 -8 -7 4 -13 3 -13 -3 0 -5 -7 -17 -16
-25 -8 -9 -11 -16 -5 -16 6 0 11 -5 11 -11 0 -5 -4 -8 -8 -5 -5 3 -9 -1 -9 -9
0 -11 3 -12 14 -3 8 6 11 18 8 26 -4 10 0 12 11 8 14 -5 15 -4 4 9 -8 10 -9
15 -1 15 6 0 11 -3 12 -7 0 -5 2 -16 4 -26 2 -9 0 -16 -3 -14 -4 2 -17 -7 -28
-19 -17 -18 -19 -24 -8 -28 8 -3 13 0 11 6 -1 7 8 17 20 22 13 6 23 22 27 45
6 37 -3 53 -29 57 -14 2 -14 0 -3 -14z"/>
<path d="M8360 2460 c0 -47 3 -60 15 -60 12 0 15 13 15 60 0 47 -3 60 -15 60
-12 0 -15 -13 -15 -60z"/>
<path d="M8410 2467 c0 -58 4 -68 26 -60 10 3 14 22 14 59 0 47 -2 54 -20 54
-17 0 -20 -7 -20 -53z"/>
<path d="M8463 2480 c0 -25 2 -35 4 -22 2 12 2 32 0 45 -2 12 -4 2 -4 -23z"/>
<path d="M8480 2510 c0 -5 5 -10 10 -10 6 0 10 5 10 10 0 6 -4 10 -10 10 -5 0
-10 -4 -10 -10z"/>
<path d="M2980 2435 c-6 -8 -10 -19 -8 -24 1 -6 8 1 15 14 13 28 11 31 -7 10z"/>
<path d="M3014 2396 c1 -8 5 -18 8 -22 4 -3 5 1 4 10 -1 8 -5 18 -8 22 -4 3
-5 -1 -4 -10z"/>
<path d="M2981 2386 c-9 -11 -9 -16 1 -22 7 -4 10 -4 6 1 -4 4 -3 14 3 22 6 7
9 13 6 13 -2 0 -10 -6 -16 -14z"/>
<path d="M8420 2350 c0 -16 5 -30 10 -30 6 0 10 14 10 30 0 17 -4 30 -10 30
-5 0 -10 -13 -10 -30z"/>
<path d="M8462 2368 c6 -18 28 -21 28 -4 0 9 -7 16 -16 16 -9 0 -14 -5 -12
-12z"/>
<path d="M8380 2315 c0 -8 5 -15 10 -15 6 0 10 7 10 15 0 8 -4 15 -10 15 -5 0
-10 -7 -10 -15z"/>
<path d="M2528 2273 c5 -76 10 -83 11 -15 0 34 -2 62 -7 62 -4 0 -6 -21 -4
-47z"/>
<path d="M2573 2309 c12 -7 15 -17 11 -35 -4 -14 -2 -24 5 -24 6 0 11 16 11
35 0 30 -3 35 -22 35 -21 -1 -21 -2 -5 -11z"/>
<path d="M8420 2260 c0 -22 5 -40 10 -40 6 0 10 18 10 40 0 22 -4 40 -10 40
-5 0 -10 -18 -10 -40z"/>
<path d="M8300 2244 l0 -35 48 4 c45 3 47 5 50 35 3 34 -13 45 -21 15 -4 -17
-5 -17 -6 0 -1 13 -10 17 -36 17 -33 0 -35 -2 -35 -36z"/>
<path d="M2660 2220 c0 -11 5 -20 10 -20 6 0 10 9 10 20 0 11 -4 20 -10 20 -5
0 -10 -9 -10 -20z"/>
<path d="M2586 2215 c-3 -8 -1 -15 4 -15 6 0 10 7 10 15 0 8 -2 15 -4 15 -2 0
-6 -7 -10 -15z"/>
<path d="M2620 2215 c0 -8 7 -15 15 -15 8 0 15 7 15 15 0 8 -7 15 -15 15 -8 0
-15 -7 -15 -15z"/>
<path d="M8240 2167 c0 -25 17 -47 37 -47 8 0 13 13 13 35 0 31 -3 35 -25 35
-19 0 -25 -5 -25 -23z"/>
<path d="M8300 2155 c0 -33 1 -35 33 -31 28 3 32 7 32 31 0 32 -21 45 -28 18
-4 -17 -5 -17 -6 0 0 9 -8 17 -16 17 -10 0 -15 -11 -15 -35z"/>
<path d="M8382 2160 c0 -19 2 -27 5 -17 2 9 2 25 0 35 -3 9 -5 1 -5 -18z"/>
<path d="M8421 2160 c0 -33 1 -34 10 -11 6 16 6 28 -1 35 -7 7 -10 -1 -9 -24z"/>
<path d="M2580 2155 c0 -8 5 -15 10 -15 6 0 10 7 10 15 0 8 -4 15 -10 15 -5 0
-10 -7 -10 -15z"/>
<path d="M2620 2155 c0 -9 6 -12 15 -9 8 4 12 10 9 15 -8 14 -24 10 -24 -6z"/>
<path d="M2660 2155 c0 -8 5 -15 10 -15 6 0 10 7 10 15 0 8 -4 15 -10 15 -5 0
-10 -7 -10 -15z"/>
<path d="M2700 2150 c0 -17 7 -20 53 -21 l52 -2 -47 -6 c-54 -8 -63 -14 -55
-36 4 -10 20 -15 49 -16 37 0 40 -2 20 -10 -13 -5 -20 -13 -17 -19 4 -6 -5
-10 -19 -10 -16 0 -26 -6 -26 -15 0 -18 21 -20 38 -3 9 9 12 8 12 -5 0 -12 8
-17 30 -17 l30 0 0 90 0 90 -60 0 c-53 0 -60 -2 -60 -20z"/>
<path d="M2580 2105 c0 -8 5 -15 10 -15 6 0 10 7 10 15 0 8 -4 15 -10 15 -5 0
-10 -7 -10 -15z"/>
<path d="M2660 2095 c0 -8 5 -15 10 -15 6 0 10 7 10 15 0 8 -4 15 -10 15 -5 0
-10 -7 -10 -15z"/>
<path d="M8202 2063 c2 -27 8 -48 13 -48 6 0 11 21 13 48 3 38 0 47 -13 47
-13 0 -16 -9 -13 -47z"/>
<path d="M8243 2060 c0 -25 2 -35 4 -22 2 12 2 32 0 45 -2 12 -4 2 -4 -23z"/>
<path d="M8272 2060 c12 -47 34 -55 24 -9 -3 17 -6 35 -6 40 0 5 -6 9 -14 9
-11 0 -12 -8 -4 -40z"/>
<path d="M8310 2060 c0 -22 4 -40 9 -40 12 0 25 56 16 70 -13 22 -25 8 -25
-30z"/>
<path d="M8351 2058 c0 -31 3 -37 8 -24 7 18 3 66 -5 66 -2 0 -4 -19 -3 -42z"/>
<path d="M2580 2009 c0 -5 5 -7 10 -4 6 3 10 8 10 11 0 2 -4 4 -10 4 -5 0 -10
-5 -10 -11z"/>
<path d="M8200 1980 c0 -11 7 -20 15 -20 8 0 15 6 15 13 0 8 4 7 10 -3 8 -12
10 -11 10 5 0 15 -7 21 -25 23 -19 1 -25 -3 -25 -18z"/>
<path d="M8280 1980 c0 -11 5 -20 10 -20 6 0 10 9 10 20 0 11 -4 20 -10 20 -5
0 -10 -9 -10 -20z"/>
<path d="M2767 1963 c-4 -3 -7 -15 -7 -25 0 -13 8 -18 30 -18 25 0 30 4 30 25
0 20 -5 25 -23 25 -13 0 -27 -3 -30 -7z"/>
<path d="M2731 1944 c0 -11 3 -14 6 -6 3 7 2 16 -1 19 -3 4 -6 -2 -5 -13z"/>
<path d="M7990 1930 c0 -5 12 -10 26 -10 14 0 23 4 19 10 -3 6 -15 10 -26 10
-10 0 -19 -4 -19 -10z"/>
<path d="M8140 1930 c0 -5 7 -10 15 -10 8 0 15 5 15 10 0 6 -7 10 -15 10 -8 0
-15 -4 -15 -10z"/>
<path d="M8200 1930 c0 -5 5 -10 10 -10 6 0 10 5 10 10 0 6 -4 10 -10 10 -5 0
-10 -4 -10 -10z"/>
<path d="M2840 1890 c0 -5 5 -10 10 -10 6 0 10 5 10 10 0 6 -4 10 -10 10 -5 0
-10 -4 -10 -10z"/>
<path d="M2935 1890 c3 -5 10 -10 16 -10 5 0 9 5 9 10 0 6 -7 10 -16 10 -8 0
-12 -4 -9 -10z"/>
<path d="M8110 1885 c0 -8 5 -15 10 -15 6 0 10 7 10 15 0 8 -4 15 -10 15 -5 0
-10 -7 -10 -15z"/>
<path d="M8140 1880 c0 -11 7 -20 15 -20 8 0 15 9 15 20 0 11 -7 20 -15 20 -8
0 -15 -9 -15 -20z"/>
<path d="M8201 1884 c0 -11 3 -14 6 -6 3 7 2 16 -1 19 -3 4 -6 -2 -5 -13z"/>
<path d="M8230 1885 c0 -8 5 -15 10 -15 6 0 10 7 10 15 0 8 -4 15 -10 15 -5 0
-10 -7 -10 -15z"/>
<path d="M7660 1825 c0 -10 11 -15 35 -15 24 0 35 5 35 15 0 10 -11 15 -35 15
-24 0 -35 -5 -35 -15z"/>
<path d="M7742 1828 c7 -20 68 -23 68 -4 0 12 -10 16 -36 16 -24 0 -34 -4 -32
-12z"/>
<path d="M7836 1827 c6 -18 41 -19 48 -1 4 10 -3 14 -24 14 -20 0 -28 -4 -24
-13z"/>
<path d="M7900 1830 c0 -5 5 -10 10 -10 6 0 10 5 10 10 0 6 -4 10 -10 10 -5 0
-10 -4 -10 -10z"/>
<path d="M7940 1825 c0 -8 7 -15 15 -15 8 0 15 7 15 15 0 8 -7 15 -15 15 -8 0
-15 -7 -15 -15z"/>
<path d="M8020 1829 c0 -5 5 -7 10 -4 6 3 10 8 10 11 0 2 -4 4 -10 4 -5 0 -10
-5 -10 -11z"/>
<path d="M8060 1825 c0 -8 5 -15 10 -15 6 0 10 7 10 15 0 8 -4 15 -10 15 -5 0
-10 -7 -10 -15z"/>
<path d="M8150 1825 c0 -8 2 -15 4 -15 2 0 6 7 10 15 3 8 1 15 -4 15 -6 0 -10
-7 -10 -15z"/>
<path d="M3925 1799 c-22 -6 -30 -15 -31 -34 -2 -32 23 -34 36 -2 8 20 9 19 9
-10 1 -51 21 -39 21 12 0 25 -1 45 -2 44 -2 0 -16 -5 -33 -10z"/>
<path d="M3865 1790 c-3 -5 -36 -11 -73 -11 -46 -1 -58 -3 -37 -8 20 -4 31
-14 36 -31 l7 -25 1 28 c1 23 5 27 30 27 26 0 29 -4 38 -52 l10 -53 2 68 c1
66 -2 77 -14 57z"/>
<path d="M7750 1780 c0 -16 7 -20 30 -20 23 0 30 4 30 20 0 16 -7 20 -30 20
-23 0 -30 -4 -30 -20z"/>
<path d="M7842 1780 c0 -14 2 -19 5 -12 2 6 2 18 0 25 -3 6 -5 1 -5 -13z"/>
<path d="M7860 1780 c0 -11 4 -20 9 -20 5 0 11 9 14 20 3 13 0 20 -9 20 -8 0
-14 -9 -14 -20z"/>
<path d="M7940 1786 c0 -8 5 -18 10 -21 6 -3 10 3 10 14 0 12 -4 21 -10 21 -5
0 -10 -6 -10 -14z"/>
<path d="M3695 1778 c-7 -21 -1 -128 8 -128 4 0 7 32 7 70 0 66 -5 86 -15 58z"/>
<path d="M7300 1753 c0 -33 10 -40 44 -27 16 6 23 53 9 55 -55 6 -53 7 -53
-28z"/>
<path d="M7584 1783 c-27 -4 -30 -7 -26 -33 5 -38 29 -39 34 -2 l4 27 14 -28
c9 -19 16 -24 21 -15 5 7 3 16 -4 20 -9 6 -9 8 1 8 6 0 12 7 12 15 0 8 -6 14
-12 13 -7 0 -27 -3 -44 -5z"/>
<path d="M7660 1775 c0 -10 10 -15 29 -15 16 0 31 6 35 15 4 12 -3 15 -29 15
-24 0 -35 -5 -35 -15z"/>
<path d="M5241 1733 l1 -48 13 40 c13 41 11 55 -6 55 -5 0 -9 -21 -8 -47z"/>
<path d="M5280 1734 c0 -48 0 -48 19 -27 29 31 31 67 4 71 -21 3 -23 -1 -23
-44z"/>
<path d="M7380 1752 c0 -19 5 -29 15 -29 18 0 20 23 3 30 -10 4 -10 6 0 6 17
1 15 21 -3 21 -10 0 -15 -10 -15 -28z"/>
<path d="M7420 1770 c0 -5 7 -10 15 -10 8 0 15 5 15 10 0 6 -7 10 -15 10 -8 0
-15 -4 -15 -10z"/>
<path d="M7480 1750 c0 -25 4 -30 25 -30 21 0 25 5 25 30 0 25 -4 30 -25 30
-21 0 -25 -5 -25 -30z"/>
<path d="M4886 1761 c-4 -7 -5 -15 -2 -18 9 -9 19 4 14 18 -4 11 -6 11 -12 0z"/>
<path d="M4857 1733 c-3 -16 -1 -35 4 -43 6 -10 8 -2 9 28 0 48 -5 55 -13 15z"/>
<path d="M7120 1745 c0 -18 16 -20 23 -2 4 10 6 10 6 0 1 -18 21 -16 21 2 0 9
-9 15 -25 15 -16 0 -25 -6 -25 -15z"/>
<path d="M7180 1745 c0 -8 5 -15 10 -15 6 0 10 7 10 15 0 8 -4 15 -10 15 -5 0
-10 -7 -10 -15z"/>
<path d="M4480 1725 c0 -16 6 -25 16 -25 10 0 14 6 11 15 -4 8 -2 17 3 20 6 4
10 -3 10 -14 0 -12 5 -21 10 -21 6 0 10 11 10 25 0 21 -5 25 -30 25 -25 0 -30
-4 -30 -25z"/>
<path d="M4625 1740 c-3 -5 0 -10 9 -10 8 0 17 -6 19 -12 3 -7 6 -3 6 10 1 22
-22 31 -34 12z"/>
<path d="M4722 1725 c0 -16 2 -22 5 -12 2 9 2 23 0 30 -3 6 -5 -1 -5 -18z"/>
<path d="M4752 1730 c0 -14 2 -19 5 -12 2 6 2 18 0 25 -3 6 -5 1 -5 -13z"/>
<path d="M4780 1739 c0 -5 5 -7 10 -4 6 3 10 8 10 11 0 2 -4 4 -10 4 -5 0 -10
-5 -10 -11z"/>
<path d="M7061 1734 c0 -11 3 -14 6 -6 3 7 2 16 -1 19 -3 4 -6 -2 -5 -13z"/>
<path d="M7080 1740 c0 -5 5 -10 10 -10 6 0 10 5 10 10 0 6 -4 10 -10 10 -5 0
-10 -4 -10 -10z"/>
<path d="M4320 1730 c0 -5 5 -10 10 -10 6 0 10 5 10 10 0 6 -4 10 -10 10 -5 0
-10 -4 -10 -10z"/>
<path d="M4420 1736 c0 -9 30 -14 35 -6 4 6 -3 10 -14 10 -12 0 -21 -2 -21 -4z"/>
<path d="M4685 1730 c3 -5 8 -10 11 -10 2 0 4 5 4 10 0 6 -5 10 -11 10 -5 0
-7 -4 -4 -10z"/>
<path d="M4210 1715 c0 -8 7 -15 15 -15 8 0 15 7 15 15 0 8 -7 15 -15 15 -8 0
-15 -7 -15 -15z"/>
<path d="M4820 1711 c0 -25 6 -27 13 -6 4 8 2 17 -3 20 -6 4 -10 -3 -10 -14z"/>
<path d="M4880 1720 c0 -5 5 -10 10 -10 6 0 10 5 10 10 0 6 -4 10 -10 10 -5 0
-10 -4 -10 -10z"/>
<path d="M6940 1720 c0 -5 5 -10 10 -10 6 0 10 5 10 10 0 6 -4 10 -10 10 -5 0
-10 -4 -10 -10z"/>
<path d="M4150 1716 c0 -2 7 -6 15 -10 8 -3 15 -1 15 4 0 6 -7 10 -15 10 -8 0
-15 -2 -15 -4z"/>
<path d="M4780 1709 c0 -5 5 -7 10 -4 6 3 10 8 10 11 0 2 -4 4 -10 4 -5 0 -10
-5 -10 -11z"/>
<path d="M5645 1710 c-3 -5 1 -10 10 -10 9 0 13 5 10 10 -3 6 -8 10 -10 10 -2
0 -7 -4 -10 -10z"/>
<path d="M6620 1710 c0 -5 5 -10 10 -10 6 0 10 5 10 10 0 6 -4 10 -10 10 -5 0
-10 -4 -10 -10z"/>
<path d="M6725 1710 c3 -5 8 -10 11 -10 2 0 4 5 4 10 0 6 -5 10 -11 10 -5 0
-7 -4 -4 -10z"/>
<path d="M6778 1713 c7 -3 16 -2 19 1 4 3 -2 6 -13 5 -11 0 -14 -3 -6 -6z"/>
<path d="M6500 1694 c0 -8 5 -12 10 -9 6 3 10 10 10 16 0 5 -4 9 -10 9 -5 0
-10 -7 -10 -16z"/>
<path d="M3332 1680 c0 -14 2 -19 5 -12 2 6 2 18 0 25 -3 6 -5 1 -5 -13z"/>
<path d="M5440 1690 c0 -5 5 -10 10 -10 6 0 10 5 10 10 0 6 -4 10 -10 10 -5 0
-10 -4 -10 -10z"/>
<path d="M6145 1690 c-3 -5 -1 -10 4 -10 6 0 11 5 11 10 0 6 -2 10 -4 10 -3 0
-8 -4 -11 -10z"/>
<path d="M6180 1650 c0 -27 5 -50 10 -50 6 0 10 23 10 50 0 28 -4 50 -10 50
-5 0 -10 -22 -10 -50z"/>
<path d="M6225 1690 c3 -5 8 -10 11 -10 2 0 4 5 4 10 0 6 -5 10 -11 10 -5 0
-7 -4 -4 -10z"/>
<path d="M6285 1690 c4 -6 11 -8 16 -5 14 9 11 15 -7 15 -8 0 -12 -5 -9 -10z"/>
<path d="M6321 1693 c0 -5 4 -17 9 -28 8 -18 9 -17 9 8 1 15 -3 27 -9 27 -5 0
-10 -3 -9 -7z"/>
<path d="M6370 1690 c0 -5 20 -8 45 -7 25 1 45 5 45 9 0 5 -20 8 -45 8 -25 0
-45 -4 -45 -10z"/>
<path d="M7485 1690 c3 -5 8 -10 11 -10 2 0 4 5 4 10 0 6 -5 10 -11 10 -5 0
-7 -4 -4 -10z"/>
<path d="M3361 1674 c0 -11 3 -14 6 -6 3 7 2 16 -1 19 -3 4 -6 -2 -5 -13z"/>
<path d="M4520 1675 c0 -8 5 -15 10 -15 6 0 10 7 10 15 0 8 -4 15 -10 15 -5 0
-10 -7 -10 -15z"/>
<path d="M5703 1683 c-36 -7 -27 -21 13 -21 21 0 34 4 31 11 -4 13 -15 15 -44
10z"/>
<path d="M5820 1671 c0 -10 6 -18 13 -19 6 0 22 -4 35 -7 19 -6 22 -4 22 18 0
22 -4 25 -35 25 -27 0 -35 -4 -35 -17z"/>
<path d="M5912 1668 c2 -13 6 -21 10 -18 4 3 14 -4 22 -15 15 -19 15 -18 16
18 0 33 -3 37 -26 37 -21 0 -25 -4 -22 -22z"/>
<path d="M5983 1678 c2 -7 10 -12 16 -10 6 1 15 -6 18 -15 6 -15 8 -14 14 7 7
25 7 25 8 -4 1 -21 5 -27 17 -22 9 3 18 6 20 6 2 0 4 11 4 25 0 23 -3 25 -51
25 -36 0 -49 -4 -46 -12z"/>
<path d="M6100 1686 c0 -2 7 -6 15 -10 8 -3 15 -1 15 4 0 6 -7 10 -15 10 -8 0
-15 -2 -15 -4z"/>
<path d="M5640 1670 c19 -13 30 -13 30 0 0 6 -10 10 -22 10 -19 0 -20 -2 -8
-10z"/>
<path d="M5770 1670 c0 -5 7 -10 15 -10 8 0 15 5 15 10 0 6 -7 10 -15 10 -8 0
-15 -4 -15 -10z"/>
<path d="M3871 1604 c0 -11 3 -14 6 -6 3 7 2 16 -1 19 -3 4 -6 -2 -5 -13z"/>
</g>
</svg>
